<?xml version="1.0" encoding="UTF-8"?>
<svg id="Calque_2" data-name="Calque 2" xmlns="http://www.w3.org/2000/svg" xmlns:xlink="http://www.w3.org/1999/xlink" viewBox="0 0 41.83 45.35">
  <defs>
    <style>
      .cls-1 {
        fill: url(#Dégradé_sans_nom_16);
      }

      .cls-1, .cls-2 {
        stroke-width: 0px;
      }

      .cls-2 {
        fill: #fff;
      }
    </style>
    <linearGradient id="Dégradé_sans_nom_16" data-name="Dégradé sans nom 16" x1="0" y1="22.67" x2="41.83" y2="22.67" gradientUnits="userSpaceOnUse">
      <stop offset="0" stop-color="#4f8ae0"/>
      <stop offset="1" stop-color="#00616c"/>
    </linearGradient>
  </defs>
  <g id="_03" data-name="03">
    <g>
      <g>
        <g>
          <path class="cls-2" d="M2.36,14.92c-.03-.53-.07-1.07-.08-1.6,0-.53,0-1.07.05-1.6.07-.71.31-1.38.68-1.99.5-.81,1.02-1.6,1.55-2.39.41-.6.96-1.04,1.61-1.34.39-.18.79-.34,1.19-.5.42-.17.84-.32,1.25-.49.32-.13.63-.28.97-.52-.49-.03-.89.16-1.35.1.07-.1.1-.15.14-.2.37-.39.74-.77,1.11-1.15.19-.2.38-.4.58-.59.24-.21.52-.34.84-.36.51-.02.98-.16,1.45-.37,1.59-.7,3.26-1,4.98-1.08.84-.04,1.69-.06,2.53,0,1.73.12,3.36.55,4.87,1.43,1.75,1.01,3.43,2.12,5.11,3.25.11.08.22.16.33.24.64.46,1.06,1.07,1.24,1.85.18.77.43,1.53.73,2.26.51,1.26,1.2,2.4,2.1,3.42.26.3.54.59.79.89.25.31.48.63.72.94.25.33.48.68.76.98.39.42.61.91.71,1.47.04.22.07.44.12.66.06.31.18.59.43.8.29.25.49.57.67.91.39.73.79,1.46,1.18,2.18.3.55.6,1.09.89,1.64.31.61.49,1.25.44,1.94-.07.95-.1,1.89-.17,2.84-.04.6-.11,1.2-.22,1.8,0-.12-.02-.24-.02-.35,0-.14.01-.28.02-.41.04-1.21.09-2.41.13-3.62.03-.83-.17-1.61-.6-2.32-.26-.43-.5-.86-.75-1.3-.42-.73-.84-1.47-1.25-2.2-.16-.29-.33-.57-.59-.78-.35-.29-.53-.67-.62-1.11-.05-.27-.11-.54-.17-.81-.08-.38-.27-.7-.52-1-.31-.37-.59-.76-.89-1.14-.22-.29-.44-.58-.67-.85-.3-.35-.62-.69-.93-1.04-.43-.5-.82-1.03-1.16-1.59-.06-.1-.13-.2-.2-.3-.54.85-.53.86-1.41,1.64-.49.44-.85.95-.98,1.6-.02.08-.06.16-.11.27-.1-.08-.19-.13-.25-.2-.43-.47-.86-.95-1.29-1.42-.28-.31-.57-.61-.86-.9-.08-.08-.19-.13-.33-.23,0,.19-.02.32,0,.45.1.58.32,1.13.61,1.64.79,1.43,1.89,2.59,3.22,3.52.28.2.58.37.87.57.26.18.51.36.75.55.25.21.47.45.63.76-.09.28-.3.46-.56.57-.21.09-.42.14-.64.21-.25.08-.5.15-.73.25-.67.29-.77,1.07-.52,1.59.09.19.25.33.45.41.19.08.39.13.59.2.16.05.33.1.49.16.16.07.23.2.24.37,0,.33-.11.48-.43.53-.55.08-1.1.12-1.64.22-.7.13-1.39.25-2.1.28-.33.02-.51.17-.58.48-.01.05-.03.1-.04.15-.1.54-.39.94-.79,1.3-.25.21-.47.46-.68.71-.28.35-.41.75-.38,1.21,0,.15.02.31,0,.47-.02.4-.15.56-.54.64-.2.04-.41.04-.62.06-.33.03-.65.06-.98.09-.08,0-.16.05-.27.08.03.37.08.73.07,1.08-.01.34-.02.69-.2,1.03-.14-.05-.16-.17-.19-.27-.21-.69-.41-1.39-.63-2.08-.13-.41-.28-.82-.45-1.21-.26-.59-.72-.95-1.33-1.14-.04-.01-.1,0-.17.02.02.08.03.15.06.2.55.99.86,2.06,1.11,3.16.19.82.4,1.64.71,2.43.11.28.14.6.2.91.07.41.13.82.21,1.22.11.58.27,1.14.71,1.58.04.04.06.08.09.13.08.15.05.32-.1.4-.17.09-.34.16-.52.21-.3.08-.6.14-.91.22-.28.07-.57.14-.85.22-.11.03-.22.09-.33.13-.12.67-.17,1.34-.43,1.95-.14,0-.15-.07-.16-.14-.16-.85-.21-1.71-.18-2.58,0-.21,0-.41,0-.62-.02-.72-.04-1.45-.07-2.17,0-.18.03-.38-.09-.56-.19.09-.28.26-.37.42-.27.47-.42.98-.51,1.51-.14.8-.17,1.61-.2,2.42-.02.66,11.09,4.46,10.92,5.09-.51,1.9-12.91-.11-14.81.32-.21.05-.45.06-.67.03-.76-.09-1.49-.27-2.18-.61-.23-.11-.46-.23-.66-.44.05-.15.09-.3.15-.44.26-.58.26-1.17.12-1.77-.07-.32-.12-.64-.18-.97-.15-.83-.12-1.65.04-2.47.04-.24.12-.47.21-.69.17-.39.47-.59.9-.56.28.02.55.06.82.09.24.02.48.04.72.04.35,0,.6-.19.69-.52.08-.26.13-.54.15-.81.02-.5,0-1,.01-1.5,0-.67-.03-1.34.06-2.02.06-.4.15-.78.3-1.15.11-.27.18-.55.17-.86-.01-.31-.16-.53-.44-.64-.17-.07-.37-.12-.55-.12-.38,0-.76,0-1.14.04-.57.05-1.13.12-1.7.1-.44-.02-.89.09-1.32.2-.42.1-.54.35-.47.78.03.17.06.34.09.51.1.45.03.86-.24,1.23-.13.17-.15.33-.12.53.07.6.12,1.2.02,1.81-.04.24-.08.48-.13.71-.01.06-.06.11-.14.23-.04-.17-.06-.26-.07-.36-.22-1.76-.64-3.46-1.35-5.08-.2-.45-.55-.75-.93-1.01-.36-.25-.75-.42-1.21-.41-.04.19.11.25.19.34.67.67,1.14,1.47,1.41,2.38.16.53.26,1.07.27,1.63,0,.98,0,1.97-.01,2.95,0,.86,0,1.73.21,2.57.05.22.12.43.18.65.01.06,0,.12,0,.23-.09-.05-.15-.08-.2-.12-.13-.11-.25-.24-.38-.36-.55-.53-.93-1.12-1.01-1.92-.11-.99-.31-1.98-.48-2.96-.1-.59-.22-1.19-.33-1.78-.01-.08-.06-.15-.11-.25-.29.36-.29.8-.53,1.19-.08-.13-.15-.23-.2-.33-1.18-2.13-2.19-4.34-3.29-6.51-.52-1.04-.61-2.11-.21-3.21.33-.91.68-1.81,1.01-2.72.06-.17.17-.34.12-.54-.09-.08-.16,0-.22.04-.25.22-.49.44-.73.66-.09.08-.17.16-.25.24-.17-.07-.2-.21-.24-.34-.16-.55-.22-1.12-.21-1.69.02-.85.14-1.68.42-2.49.11-.32.23-.65.47-.92.2.08.2.28.28.42.06.1.06.25.23.23-.01.01-.03.03-.03.04,0,.01,0,.03,0,.04,0-.03,0-.05.01-.08ZM21.78,2.33s.05.03.08.04c0,0,.01-.02.02-.02-.04,0-.07,0-.11,0,0-.03,0-.08-.03-.09-.47-.31-1.31-.44-1.99-.3.72.14,1.37.26,2.03.38ZM7.08,27.51s.01-.1-.07-.07l.08.05s.04.06.07.08c.65.47,1.2,1.03,1.63,1.71.02.03.05.04.08.06.01-.01.04-.03.03-.04-.28-.76-.79-1.32-1.48-1.72-.1-.06-.21-.12-.34-.08ZM11.16,15.22s.02-.02.03-.03c0,0,.02,0,.03,0-.02,0-.05,0-.07.01.04-.16-.08-.21-.18-.27-.57-.38-1.1-.81-1.57-1.31-.1-.11-.2-.23-.32-.33-.04-.04-.13-.02-.19-.03,0-.03.01-.07.02-.1,0,.03-.02.07-.02.1.08.09.17.17.23.26.45.65,1.03,1.15,1.74,1.51.1.05.2.12.3.19ZM4.87,7.55c.12.06.19-.01.27-.09.65-.63,1.39-1.12,2.22-1.48.04-.02.06-.06.13-.11-.42.07-.76.21-1.1.38-.61.31-1.09.76-1.5,1.31-.03.06-.05.11-.1.21.06-.05.11-.07.11-.09,0-.05-.02-.09-.03-.14ZM24.77,2.67s-.02.03-.03.03c0,0-.02,0-.03-.01h.07c-.03.17.13.21.24.28.81.52,1.62,1.03,2.43,1.55.07.04.13.08.2.13,0-.1-.06-.17-.11-.22-.7-.62-1.47-1.12-2.32-1.51-.15-.07-.29-.16-.44-.24ZM14.31,20.79c.13.02.18-.08.24-.15.32-.41.64-.81.96-1.22.08-.09.15-.19.23-.28.26-.28.57-.37.94-.28.26.06.48.18.69.33.35.25.65.57.9.92.11.15.22.31.33.46.28.36.64.57,1.1.6.22.01.45.05.67.06.38.03.64.23.8.57.09.19.15.39.23.58.14.35.27.71.44,1.05.34.66.9,1.05,1.63,1.13.5.05,1,.05,1.5.03.52-.02.78-.3.83-.82.02-.24.02-.48,0-.72-.02-.65-.06-1.31-.09-1.96,0-.28-.11-.5-.31-.68-.13-.11-.27-.22-.4-.33-.11-.09-.22-.17-.32-.26-.23-.21-.29-.46-.18-.75.06-.16.14-.32.2-.48.16-.39.22-.8.09-1.21-.16-.53-.3-1.06-.49-1.58-.28-.76-.6-1.5-.9-2.26-.09-.24-.18-.48-.25-.73-.1-.4-.08-.79.13-1.15.17-.3.35-.59.53-.89.12-.19.29-.3.52-.29.22,0,.45.03.67.06.2.03.4.1.6.14.57.13,1.16.21,1.75.14.27-.04.54-.1.79-.21.38-.17.46-.45.25-.8-.12-.2-.28-.4-.45-.56-.35-.32-.6-.71-.79-1.14-.2-.46-.4-.92-.61-1.37-.33-.68-.69-1.35-1.03-2.03-.18-.36-.47-.53-.87-.54-.38,0-.76-.01-1.14-.04-1.17-.07-2.17.3-3.03,1.09-.42.39-.82.79-1.23,1.19-.07.07-.11.17-.17.26.11.12.2.22.3.31.25.24.51.47.77.7.51.46,1.03.92,1.54,1.38.07.06.11.15.18.25-.3.02-.52-.09-.74-.18-1.01-.42-1.85-1.06-2.56-1.89-.12-.14-.25-.29-.39-.41-.47-.41-.89-.86-1.27-1.36-.07-.09-.15-.17-.23-.26-.05.04-.09.05-.1.08-.02.04-.04.09-.05.14-.06.4-.01.79.14,1.17.18.47.45.9.8,1.26.34.34.7.67,1.06.98.34.29.7.56,1.04.85.59.5,1.11,1.08,1.58,1.7.28.37.29.7.08,1.09-.15.26-.32.5-.56.67-.22.16-.46.31-.7.44-.32.17-.65.32-.98.47-.44.2-.87.41-1.24.73-.21.18-.47.3-.75.33-.24.02-.48.04-.72.02-.34-.03-.68-.1-1.03-.13-.43-.03-1.55.33-2.02.63.85.18,1.68.14,2.58.08-.1.1-.14.16-.19.18-.19.08-.38.17-.58.23-1.75.51-3.38.24-4.89-.75-.28-.18-.5-.4-.69-.69-.66-1.04-1.55-1.84-2.64-2.42-.19-.1-.38-.21-.66-.27.13.22.3.32.43.44.36.32.73.63,1.09.95.05.05.15.09.09.22-.55-.21-1.05-.58-1.72-.61.07.15.1.27.17.36.2.26.39.53.61.77.58.64,1.25,1.19,1.92,1.73.12.09.28.15.32.35-.15.04-.3.08-.44.12-.6.16-1.2.3-1.8.48-.41.12-.53.33-.45.74.05.27.15.53.21.8.04.18.09.37.1.56.02.21-.08.37-.29.44-.25.07-.5.15-.75.19-.97.17-1.84.58-2.63,1.15-.17.12-.32.27-.45.43-.18.22-.2.48-.04.72.12.19.26.37.41.53.36.38.68.77.81,1.3.09.36.34.6.69.72.26.09.53.16.8.19.67.06,1.34.09,2.01.13.05,0,.14.04.17-.09-.33-.09-.66-.18-.98-.28-.33-.1-.68-.13-.97-.34.18-.02.34,0,.51.02.99.15,1.96.41,2.9.75.19.07.4.1.6.14.41.08.83.1,1.22.23.36.12.62.02.82-.25.15-.2.25-.45.37-.68.05-.11.06-.23.11-.34.09-.2.24-.29.45-.26.12.02.24.05.35.1.16.06.32.14.48.19.16.05.34.09.5.09.3,0,.45-.25.36-.54-.06-.2-.14-.39-.2-.59-.15-.56-.22-1.12-.06-1.68.2-.72.61-1.31,1.16-1.8,0,0,.05.02.1.03-.16.23-.31.45-.46.68-.15.23-.28.47-.41.71,0,.01.02.02.02.03,0,0,0,.02,0,.03,0-.02,0-.04,0-.07ZM19.91,29.24c.01-.35-.02-.69-.19-1-.36-.68-1.16-.73-1.58-.08-.12.18-.21.4-.26.61-.21.92-.11,1.85.08,2.76.03.16.12.32.23.45.24.29.6.29.86.02.12-.12.21-.27.28-.43.36-.74.53-1.52.58-2.33ZM28.05,20.65s0-.01,0-.02c.1,0,.21,0,.31,0,.36-.04.52-.21.51-.58,0-.19-.04-.38-.1-.56-.26-.67-.53-1.34-.8-2.01-.07-.16-.17-.3-.27-.44-.08-.11-.19-.21-.3-.28-.22-.15-.46-.12-.66.06-.05.05-.1.1-.14.15-.33.49-.52,1.02-.39,1.61.1.43.24.86.41,1.28.18.45.55.69,1.03.76.14.02.27.02.41.03ZM12.66,13.28c.27.02.56-.03.82-.17.65-.35.68-1.01.38-1.44-.32-.47-.77-.71-1.34-.74-.23-.01-.44.05-.64.17-.38.24-.65.57-.8.98-.17.48.01.85.49,1.02.34.12.69.19,1.08.19ZM15,40.58c.12-.03.35-.06.55-.15.38-.16.6-.47.62-.88.02-.38-.21-.64-.53-.83-.47-.27-.98-.32-1.5-.22-.23.04-.4.18-.52.39-.28.54-.06,1.24.48,1.52.25.13.52.16.9.17ZM7.21,8.39c0,.52.17.71.59.8.81.17,1.75-.49,1.87-1.31.05-.35-.06-.6-.38-.77-.34-.19-.71-.26-1.09-.2-.26.04-.5.16-.63.4-.2.36-.33.75-.35,1.09ZM29.66,9.15c.04-.1.08-.18.09-.26.05-.44-.03-.86-.22-1.26-.25-.55-.53-1.08-.81-1.61-.06-.12-.14-.24-.24-.33-.11-.1-.25-.18-.39-.23-.18-.06-.36.06-.36.25,0,.19,0,.38.06.56.18.67.46,1.29.83,1.88.2.32.46.6.76.84.08.06.17.1.29.16ZM11.51,26.27c.02.17.03.36.08.54.13.51.51.73,1.02.59.12-.03.23-.07.34-.13.43-.22.63-.62.57-1.12-.05-.46-.33-.77-.75-.89-.63-.19-1.19.12-1.24.78,0,.07-.01.14-.02.23ZM16.94,21.29c-.04-.28-.05-.56-.11-.82-.07-.28-.27-.38-.55-.33-.32.06-.61.36-.64.71-.03.34-.03.68-.03,1.03,0,.1.03.2.06.3.1.3.34.49.59.49.25,0,.48-.19.55-.52.06-.28.08-.57.12-.85ZM13,36.5c.72.2,1.45.32,2.19.31.66,0,1.06-.39,1.11-1.05.02-.26,0-.52-.02-.77-.07-.84-.14-1.68-.22-2.53-.02-.25-.06-.51-.09-.76-.09.39-.16.79-.16,1.18,0,.79.02,1.59.03,2.38,0,.19.01.38-.02.57-.05.34-.23.53-.57.57-.26.03-.52.03-.77.04-.49.02-.99.03-1.49.05ZM19.15,2.71c.07.07.12.16.21.2.17.08.35.15.54.18.63.09,1.26.15,1.9.23.05,0,.1,0,.15,0,.11-.01.2-.05.25-.16.04-.1,0-.23-.11-.32-.13-.09-.26-.18-.4-.23-.62-.23-1.27-.32-1.93-.27-.24.02-.47.1-.6.38ZM20.66,22.77c0,.53.1,1.01.31,1.47.32.69.81,1.19,1.56,1.41.72.22,1.43.18,2.14-.03.02,0,.04-.05.06-.07-.43-.04-.86-.07-1.28-.12-.97-.12-1.71-.6-2.19-1.46-.13-.24-.25-.49-.37-.74-.08-.15-.15-.31-.22-.46ZM21.33,31.72s-.02.03-.02.05c.06.27.12.54.18.8.28,1.26.49,2.53.65,3.81,0,.02.01.04.03.04.01,0,.03,0,.05,0,.42-1.36-.12-3.88-.89-4.7ZM3.81,26.29c0,.11-.04.25-.02.38.09.56.24,1.1.49,1.62.05.11.13.21.21.29.07.07.17.13.3,0,.02-.68-.11-1.36-.43-2-.05-.09-.11-.17-.19-.24-.09-.09-.21-.11-.36-.03ZM27.89,15.98c-.02-.06-.04-.13-.06-.18-.52-1.08-1.05-2.16-1.58-3.24-.03-.06-.09-.11-.21-.26.2,1.52.75,2.74,1.85,3.69ZM9.35,26c-.07-.07-.09-.1-.12-.11-.98-.37-1.99-.53-3.03-.52-.06,0-.11.04-.19.08.75.41,2.18.65,3.35.56ZM10.32,26.56s0,0,.01,0c0,.09-.02.17,0,.26.06.27.12.53.2.79.03.1.11.2.22.17.09-.02.18-.09.24-.16.06-.08.1-.18.12-.28.06-.29.06-.58-.03-.86-.04-.11-.09-.22-.15-.33-.07-.13-.18-.2-.34-.18-.13.02-.23.13-.25.28-.01.1-.01.2-.02.31ZM4.71,10.15c0-.05,0-.12,0-.19,0-.03,0-.07-.01-.1-.03-.15-.21-.22-.31-.11-.09.1-.18.21-.23.33-.19.45-.27.92-.32,1.4,0,.09.03.2.08.29.02.04.13.06.17.04.07-.04.13-.11.17-.18.27-.45.43-.93.45-1.48ZM19.1,1.22c-1.02-.06-2.09,0-3.15.1-.27.03-.55.06-.82.11-.21.04-.38.12-.48.39.79-.03,1.51-.2,2.24-.31.75-.11,1.5-.2,2.22-.29ZM26.29,16.7c.3-.22.34-.28.38-.54.07-.45-.07-.85-.37-1.19-.05-.06-.16-.11-.22-.09-.08.03-.15.12-.2.2-.03.05-.03.13-.03.2-.02.42.09.82.25,1.2.04.08.13.15.19.21ZM18.08,22.41c-.04-.17-.08-.37-.15-.56-.05-.14-.21-.17-.35-.09-.18.09-.29.26-.3.45-.03.27-.02.54,0,.81,0,.1.06.19.11.28.09.15.28.18.39.05.08-.09.15-.19.18-.3.06-.19.08-.4.13-.63ZM16.67,38.26c.16-.04.32-.06.46-.12.31-.13.36-.44.09-.65-.31-.24-.65-.29-1.02-.15-.16.06-.25.19-.26.36-.01.19.07.34.24.42.16.06.33.09.49.14ZM31.06,10.27c.03-.06.07-.09.08-.14.11-.59-.06-1.09-.51-1.48-.08-.07-.21-.1-.32-.13-.1-.02-.2.08-.21.18,0,.05,0,.11.01.15.12.3.24.61.38.9.12.23.3.41.56.52ZM10.93,3.93c.23.09.4,0,.57-.05.48-.15.96-.29,1.35-.62.08-.06.17-.13.13-.3-.4.02-.81-.03-1.18.19-.33.2-.67.41-.87.79ZM4.37,15.27c-.28.43-.51,1.08-.52,1.44,0,.09,0,.17.02.26.02.08.06.15.11.25.38-.24.45-.62.54-.98.08-.32.1-.64-.15-.96ZM10.66,7.16c.14-.04.3-.08.46-.15.15-.07.23-.2.24-.37,0-.11-.03-.21-.13-.26-.5-.26-.9-.07-.99.46-.02.11.03.2.14.24.08.03.16.04.28.07ZM4.35,18.8s.11-.06.15-.1c.2-.27.31-.57.38-.89.02-.1.02-.21,0-.31-.02-.14-.2-.22-.32-.13-.07.05-.14.11-.17.19-.15.37-.23.75-.14,1.15,0,.03.05.05.09.09ZM18,27.01c.29-.07.41-.27.46-.52.05-.28.03-.55-.17-.78-.11-.12-.27-.08-.32.08-.13.4-.12.81.04,1.22ZM16.78,3.15c.19,0,.31,0,.42-.03.11-.03.21-.09.31-.16.08-.06.05-.22-.05-.26-.27-.11-.54-.19-.84-.17-.17.01-.28.1-.37.24-.06.11-.03.26.09.29.16.05.33.07.43.08ZM15.36,9.87c.36,0,.71-.26.81-.6.05-.18-.1-.35-.28-.32-.07,0-.14.03-.19.06-.23.15-.41.36-.51.63-.05.13.04.24.18.24ZM19.75,5.23c.83-.52,1.7-.95,2.69-1.31-.44-.01-.69.05-1.24.28-.55.24-1.06.56-1.45,1.02ZM19.4,11.17c-.13-.45-.39-.82-.68-1.18-.36-.45-.61-.67-1.05-.91.61.74,1.17,1.42,1.72,2.09ZM13.75,11.04c-.37-.72-1.68-.84-2.23-.02.8-.51,1.52-.47,2.23.02ZM4.73,26.6c.16-.43.12-.75.05-1.06-.02-.08-.08-.15-.14-.21-.03-.03-.1-.04-.14-.03-.04.01-.08.07-.08.11,0,.38.14.73.31,1.19ZM8.12,6.58c-.33-.05-.54.09-.72.28-.18.19-.31.41-.28.72.15-.21.26-.4.42-.55.16-.16.37-.29.59-.45Z"/>
          <path class="cls-2" d="M32.45,35.27c.13.1.27.2.39.31.48.42,1.48.18,1.59-.64.02-.11.03-.23.04-.34.06.01.11.01.12.03.48.6.27,1.47-.49,1.73-.27.09-.55.09-.8-.08-.37-.25-.7-.55-.87-1.01Z"/>
          <path class="cls-2" d="M37.82,25.4c.08.11.15.18.16.24.01.15,0,.31-.01.46-.03.38-.07.75-.1,1.13-.03.38-.09.75-.22,1.11-.11.29-.27.56-.51.77-.09.08-.2.14-.3.2-.12.07-.26.09-.4.03-.07-.03-.11-.09-.2-.34.02-.02.05-.06.07-.07.55-.11.86-.48,1.07-.96.17-.4.23-.83.26-1.26.03-.34.06-.69.1-1.03,0-.08.05-.15.09-.3Z"/>
          <path class="cls-2" d="M28.26,40.67c.15.02.31.05.48.06.31.03.61-.06.91-.12.08-.02.17-.07.25-.05.07.02.14.09.17.16.02.04-.04.12-.06.18,0,.01-.02.03-.04.03-.45.17-.91.31-1.4.18-.12-.03-.24-.12-.35-.2-.07-.06-.07-.15.03-.24Z"/>
          <path class="cls-2" d="M35.31,21.54c.14.01.24.03.33.03.23,0,.36-.08.41-.31.04-.17.05-.34.04-.51-.02-.27-.06-.54-.1-.89.08.09.14.12.16.16.15.37.22.76.26,1.15.02.21-.03.41-.12.6-.08.17-.25.24-.44.19-.22-.05-.41-.16-.53-.43Z"/>
          <path class="cls-2" d="M33.71,15.51c0-.16-.02-.37.17-.48.11-.07.29.1.39.41.06.19.08.4.08.61,0,.09-.05.2-.1.28-.08.13-.26.12-.34,0-.11-.16-.19-.49-.19-.81Z"/>
          <path class="cls-2" d="M38.31,27.22c.07.63-.02,1.22-.37,1.76-.23.34-.42.48-.77.55.19-.24.39-.44.53-.68.14-.25.24-.53.33-.81.08-.27.12-.56.18-.84.04,0,.07.02.11.02Z"/>
          <path class="cls-2" d="M29.81,27.95c.13.36.06.58-.07.79-.11.18-.26.32-.47.38-.35.12-.61,0-.85-.42.08,0,.14,0,.2.02.46.12.76,0,.99-.4.06-.1.1-.2.2-.38Z"/>
          <path class="cls-2" d="M32.89,32.91c.2.02.33.04.46.05.3.02.54-.05.64-.38.01-.04.05-.08.08-.13.18.12.29.27.23.48-.06.22-.23.34-.45.36-.36.03-.67-.07-.97-.38Z"/>
          <path class="cls-2" d="M27.89,34.1c.09.25.08.48,0,.69-.17.44-.6.49-.88.12-.04-.05-.07-.12-.09-.18-.01-.03,0-.06,0-.1.03,0,.06-.03.09-.02.45.12.52.09.73-.31.02-.05.05-.09.07-.14,0-.01.03-.02.09-.06Z"/>
          <path class="cls-2" d="M32.96,36.47c1.07.32,1.13.31,1.9-.11.09.05.05.11,0,.16-.5.59-1.3.63-1.85.09-.03-.03-.03-.08-.05-.14Z"/>
          <path class="cls-2" d="M19.03,42.74s-.03,0-.05,0c-.1-.01-.21-.03-.25-.14-.04-.12.05-.2.14-.24.21-.08.42-.15.63-.2.06-.01.17.07.19.13.02.06,0,.17-.05.23-.13.16-.35.22-.61.22Z"/>
          <path class="cls-2" d="M38.76,23.83c.08.55,0,1.01-.21,1.45-.03.06-.08.11-.13.15-.08.08-.23.04-.25-.07-.01-.08-.03-.21.02-.24.35-.29.4-.71.47-1.11,0-.04.04-.08.09-.18Z"/>
          <path class="cls-2" d="M28.32,29.39c.4-.04.8-.07,1.22-.11-.1.28-.34.32-.56.37-.26.06-.46-.03-.66-.26Z"/>
          <path class="cls-2" d="M26.87,35.5c.21.02.37.05.53.05.16,0,.33-.02.54-.03-.12.26-.32.32-.51.32-.22,0-.43-.07-.56-.35Z"/>
          <path class="cls-2" d="M26.86,40.19c.27-.1.53-.2.8-.28.03-.01.1.03.12.07.02.04.02.11,0,.14-.19.26-.63.32-.91.13-.01,0,0-.03-.02-.06Z"/>
          <path class="cls-2" d="M30.18,29.17q.47-.05.82-.28c-.01.1,0,.19-.03.24-.17.24-.36.31-.62.22-.06-.02-.11-.1-.18-.18Z"/>
          <path class="cls-2" d="M28.69,34.93c0,.14.04.21.01.25-.05.08-.12.17-.19.22-.03.02-.11-.03-.2-.07.13-.14.23-.25.38-.41Z"/>
        </g>
        <g>
          <path class="cls-2" d="M20.29,17.09c1.03.08,1.27.09,1.94-.99.04.08.08.13.08.18,0,.6-.46,1.31-1.36,1.36-.18,0-.35-.03-.48-.15-.12-.1-.2-.23-.18-.4Z"/>
          <path class="cls-2" d="M24.64,5.83c.13.14.22.19.25.27.2.5.11.98-.18,1.41-.12.18-.3.29-.52.3-.2.01-.36-.07-.48-.27.07-.03.12-.07.18-.09.42-.1.62-.4.69-.8.04-.23.04-.47.06-.82Z"/>
          <path class="cls-2" d="M19.58,18.31c.26-.1.53-.13.8-.16.76-.1,1.48-.3,2.08-.81.06-.05.13-.09.22-.16-.16.74-1.65,1.43-3.09,1.13Z"/>
          <path class="cls-2" d="M12.45,19.33c.05.1.12.18.12.26,0,.49-.44,1.03-.91,1.14-.22.05-.41,0-.53-.26.29-.12.64-.1.83-.38.17-.24.31-.49.48-.77Z"/>
          <path class="cls-2" d="M22.67,19.98c0,.33-.17.56-.42.59-.25.03-.42-.15-.39-.41.05-.38.34-.47.69-.35.06.02.1.12.13.16Z"/>
          <path class="cls-2" d="M13.69,18.84c.01.2.05.3.02.38-.05.12-.13.24-.23.33-.15.13-.26.1-.5-.07.07-.17.28-.1.38-.21.09-.1.17-.21.34-.42Z"/>
          <path class="cls-2" d="M19.05,17q.41-.22.62-.61c.15.25.12.47-.1.66-.16.13-.27.13-.52-.04Z"/>
          <path class="cls-2" d="M6.95,22.35c.1-.02.2-.03.29-.07.08-.04.14-.11.27-.21-.02.15,0,.24-.04.31-.04.11-.1.23-.24.23-.15,0-.25-.08-.28-.25Z"/>
          <path class="cls-2" d="M22.76,7.36c.11-.17.19-.26.24-.36.04-.09.04-.2.06-.31.21.2.24.35.1.57-.03.05-.09.11-.15.13-.06.02-.13-.01-.25-.03Z"/>
        </g>
      </g>
      <path class="cls-1" d="M1.02,13.67c-.21-.48-.19-.95-.17-1.44.06-1.21.39-2.34.81-3.46.45-1.18,1.18-2.14,2.18-2.9.65-.49,1.36-.88,2.09-1.24.26-.13.53-.25.8-.37.66-.29,1.22-.71,1.7-1.24.21-.23.41-.47.63-.69.21-.2.43-.4.67-.57.31-.22.67-.37,1.06-.37.44,0,.85-.12,1.25-.29.67-.27,1.36-.5,2.06-.67.79-.19,1.59-.31,2.4-.36,1.05-.07,2.1-.09,3.16-.04,1.36.07,2.66.36,3.94.82.62.22,1.2.54,1.75.89,1.29.8,2.57,1.62,3.85,2.44.33.21.67.43.99.66.29.21.58.44.85.67.44.38.75.85.93,1.41.1.31.19.63.28.94.55,1.98,1.45,3.76,2.88,5.26.53.56,1.04,1.15,1.45,1.82.13.2.28.39.45.56.57.57.87,1.27,1,2.06.02.12.04.24.06.36.04.25.14.45.34.62.33.29.55.66.76,1.04.43.79.87,1.57,1.31,2.35.29.53.59,1.06.86,1.59.35.67.49,1.39.48,2.15-.02,1.52-.09,3.04-.23,4.55-.07.72-.11,1.45-.23,2.16-.39,2.3-1.17,4.47-2.39,6.46-.28.46-.61.88-.97,1.27-.3.33-.59.67-.89,1.01-.29.32-.58.64-.89.94-.9.86-1.98,1.37-3.2,1.57-.39.07-.79.1-1.18.15-.75.1-1.48.31-2.21.54-.84.27-1.68.54-2.52.76-1.22.32-2.46.34-3.69.08-.95-.2-1.91-.27-2.88-.27-1.04,0-2.07,0-3.11.01-1.26,0-2.52-.1-3.76-.34-.68-.13-1.34-.32-1.97-.63-1.06-.52-1.78-1.34-2.11-2.48-.04-.13-.08-.26-.11-.4-.07-.36-.26-.62-.55-.85-.43-.34-.86-.7-1.28-1.05-.47-.4-.92-.84-1.31-1.33-.47-.59-.81-1.24-.97-1.98-.37-1.68-1.01-3.25-1.85-4.76-.45-.81-.86-1.65-1.28-2.48-.49-.97-.94-1.96-1.44-2.93-.38-.75-.6-1.54-.73-2.36-.1-.67.05-1.3.31-1.92.09-.2.15-.42.22-.63.05-.16.02-.3-.07-.44-.33-.52-.45-1.11-.51-1.72-.11-1.04,0-2.07.23-3.08.15-.64.39-1.25.75-1.86ZM2.37,14.92c-.17.01-.17-.14-.23-.23-.08-.14-.08-.34-.28-.42-.23.27-.36.59-.47.92-.27.81-.39,1.64-.42,2.49-.01.57.04,1.14.21,1.69.04.12.07.27.24.34.09-.08.17-.17.25-.24.24-.22.48-.45.73-.66.06-.05.13-.12.22-.04.04.2-.06.37-.12.54-.33.91-.68,1.81-1.01,2.72-.41,1.1-.32,2.16.21,3.21,1.09,2.17,2.1,4.39,3.29,6.51.06.1.12.2.2.33.24-.39.24-.83.53-1.19.05.11.09.18.11.25.11.59.23,1.19.33,1.78.17.99.37,1.97.48,2.96.09.79.46,1.39,1.01,1.92.12.12.25.24.38.36.05.04.11.07.2.12,0-.1.01-.17,0-.23-.05-.22-.12-.43-.18-.65-.21-.85-.22-1.71-.21-2.57,0-.98.02-1.97.01-2.95,0-.55-.11-1.1-.27-1.63-.27-.91-.73-1.71-1.41-2.38-.09-.09-.23-.15-.19-.34.46,0,.85.17,1.21.41.39.26.74.56.93,1.01.71,1.63,1.13,3.33,1.35,5.08.01.09.04.18.07.36.08-.13.13-.18.14-.23.05-.24.09-.47.13-.71.1-.6.05-1.2-.02-1.81-.02-.2,0-.36.12-.53.28-.36.34-.78.24-1.23-.04-.17-.07-.34-.09-.51-.07-.43.05-.68.47-.78.43-.11.88-.21,1.32-.2.57.02,1.13-.05,1.7-.1.38-.03.76-.05,1.14-.04.19,0,.38.05.55.12.28.11.43.32.44.64.01.3-.06.58-.17.86-.15.37-.24.75-.3,1.15-.1.67-.06,1.34-.06,2.02,0,.5.01,1-.01,1.5-.01.27-.07.55-.15.81-.1.33-.34.51-.69.52-.24,0-.48-.02-.72-.04-.27-.02-.55-.07-.82-.09-.43-.02-.73.18-.9.56-.1.22-.17.45-.21.69-.15.82-.18,1.65-.04,2.47.06.32.11.65.18.97.14.61.14,1.2-.12,1.77-.06.14-.1.29-.15.44.19.21.42.32.66.44.69.33,1.43.51,2.18.61.22.03.45.01.67-.03,1.9-.43,3.15-1.56,3.66-3.46.17-.64.21-1.29.23-1.95.03-.81.06-1.62.2-2.42.09-.53.24-1.04.51-1.51.09-.16.18-.33.37-.42.12.19.08.38.09.56.02.72.05,1.45.07,2.17,0,.21.02.41,0,.62-.04.87.02,1.72.18,2.58.01.06.02.14.16.14.26-.61.3-1.28.43-1.95.11-.04.21-.1.33-.13.28-.08.57-.15.85-.22.3-.07.61-.13.91-.22.18-.05.36-.12.52-.21.15-.08.18-.25.1-.4-.02-.05-.05-.09-.09-.13-.44-.44-.59-1-.71-1.58-.08-.41-.13-.82-.21-1.22-.06-.3-.09-.62-.2-.91-.31-.79-.52-1.61-.71-2.43-.25-1.1-.56-2.17-1.11-3.16-.03-.05-.04-.12-.06-.2.07,0,.13-.03.17-.02.61.19,1.07.55,1.33,1.14.17.39.32.8.45,1.21.22.69.42,1.39.63,2.08.03.11.05.22.19.27.18-.33.19-.69.2-1.03.01-.36-.04-.71-.07-1.08.11-.03.19-.07.27-.08.33-.03.65-.06.98-.09.21-.02.42-.02.62-.06.4-.08.52-.24.54-.64,0-.15,0-.31,0-.47-.02-.45.1-.86.38-1.21.2-.25.43-.5.68-.71.4-.35.7-.76.79-1.3,0-.05.03-.1.04-.15.07-.31.25-.46.58-.48.71-.04,1.4-.15,2.1-.28.54-.1,1.09-.14,1.64-.22.33-.05.44-.2.43-.53,0-.17-.08-.3-.24-.37-.16-.07-.33-.11-.49-.16-.2-.06-.4-.12-.59-.2-.2-.08-.35-.22-.45-.41-.24-.52-.14-1.29.52-1.59.24-.1.49-.17.73-.25.21-.07.43-.13.64-.21.26-.11.47-.28.56-.57-.16-.3-.38-.55-.63-.76-.24-.2-.49-.38-.75-.55-.28-.2-.58-.37-.87-.57-1.34-.93-2.44-2.08-3.22-3.52-.28-.52-.5-1.06-.61-1.64-.02-.13,0-.26,0-.45.14.1.25.15.33.23.29.29.58.59.86.9.43.47.86.95,1.29,1.42.06.07.15.12.25.2.05-.11.09-.19.11-.27.13-.66.49-1.16.98-1.6.88-.79.87-.79,1.41-1.64.07.11.14.2.2.3.34.56.72,1.09,1.16,1.59.31.35.63.69.93,1.04.23.28.45.57.67.85.3.38.58.77.89,1.14.25.3.44.61.52,1,.06.27.12.54.17.81.08.44.27.81.62,1.11.26.21.43.49.59.78.41.74.83,1.47,1.25,2.2.25.43.5.87.75,1.3.42.72.62,1.49.6,2.32-.04,1.21-.08,2.41-.13,3.62,0,.14-.02.28-.02.41,0,.12.01.24.02.35.1-.6.17-1.2.22-1.8.07-.95.11-1.89.17-2.84.05-.7-.13-1.34-.44-1.94-.28-.55-.59-1.09-.89-1.64-.39-.73-.79-1.45-1.18-2.18-.18-.34-.38-.66-.67-.91-.25-.21-.37-.49-.43-.8-.04-.22-.08-.44-.12-.66-.1-.56-.32-1.05-.71-1.47-.28-.3-.51-.65-.76-.98-.24-.32-.47-.64-.72-.94-.25-.31-.53-.59-.79-.89-.9-1.02-1.59-2.17-2.1-3.42-.3-.74-.55-1.49-.73-2.26-.18-.77-.59-1.39-1.24-1.85-.11-.08-.22-.17-.33-.24-1.67-1.13-3.36-2.24-5.11-3.25-1.51-.88-3.14-1.31-4.87-1.43-.85-.06-1.69-.04-2.53,0-1.72.08-3.39.38-4.98,1.08-.46.2-.94.34-1.45.37-.32.01-.6.15-.84.36-.2.18-.39.39-.58.59-.37.38-.74.77-1.11,1.15-.04.04-.07.1-.14.2.47.07.87-.13,1.35-.1-.35.25-.66.39-.97.52-.41.17-.84.33-1.25.49-.4.16-.8.32-1.19.5-.66.3-1.21.74-1.61,1.34-.53.79-1.05,1.58-1.55,2.39-.38.61-.62,1.28-.68,1.99-.05.53-.05,1.07-.05,1.6,0,.53.05,1.07.08,1.6h.01ZM25.11,42.88c-.13-.01-.28-.04-.43-.04-.06,0-.13.04-.17.09-.06.09,0,.17.07.22.07.05.15.09.23.11.15.03.31.06.46.06.85.01,1.68-.12,2.48-.4.14-.05.28-.13.41-.21.05-.03.08-.12.07-.17-.01-.05-.08-.11-.13-.14-.13-.09-.26-.02-.39.03-.83.32-1.69.44-2.6.46ZM32.45,35.27c.17.46.5.76.87,1.01.24.17.52.17.8.08.75-.26.97-1.13.49-1.73-.02-.02-.06-.02-.12-.03-.01.12-.03.23-.04.34-.11.82-1.12,1.06-1.59.64-.13-.11-.26-.21-.39-.31ZM37.82,25.4c-.05.14-.09.22-.09.3-.04.34-.08.68-.1,1.03-.03.43-.08.86-.26,1.26-.21.48-.52.85-1.07.96-.03,0-.05.04-.07.07.09.24.13.3.2.34.14.06.27.04.4-.03.1-.06.21-.12.3-.2.24-.21.4-.47.51-.77.14-.36.19-.73.22-1.11.03-.38.07-.75.1-1.13.01-.15.03-.31.01-.46,0-.07-.08-.13-.16-.24ZM28.26,40.67c-.09.09-.1.18-.03.24.1.08.22.17.35.2.49.13.95,0,1.4-.18.01,0,.03-.02.04-.03.02-.06.08-.14.06-.18-.03-.07-.1-.14-.17-.16-.07-.02-.16.03-.25.05-.3.07-.6.15-.91.12-.17-.02-.33-.04-.48-.06ZM35.31,21.54c.12.27.31.37.53.43.18.04.35-.03.44-.19.1-.19.14-.39.12-.6-.03-.4-.1-.78-.26-1.15-.02-.05-.07-.08-.16-.16.04.35.08.62.1.89.01.17,0,.35-.04.51-.05.22-.18.31-.41.31-.1,0-.19-.01-.33-.03ZM33.71,15.51c0,.32.08.65.19.81.09.13.27.13.34,0,.05-.09.11-.19.1-.28,0-.2-.02-.41-.08-.61-.1-.31-.27-.48-.39-.41-.19.12-.17.32-.17.48ZM27.95,43.17c-.23,0-.4.07-.57.11-.18.04-.37.09-.55.12-.2.04-.41.06-.61.08-.19.02-.38.01-.56.03-.17.02-.36-.07-.5.09.84.32,2.15.13,2.8-.44ZM38.31,27.22s-.07-.02-.11-.02c-.06.28-.1.57-.18.84-.08.28-.18.56-.33.81-.14.24-.34.45-.53.68.35-.07.54-.21.77-.55.36-.54.44-1.14.37-1.76ZM29.81,27.95c-.09.18-.14.28-.2.38-.23.4-.53.52-.99.4-.06-.01-.12-.01-.2-.02.24.41.51.54.85.42.2-.07.36-.2.47-.38.12-.21.2-.44.07-.79ZM32.89,32.91c.3.31.61.42.97.38.22-.02.4-.13.45-.36.05-.21-.05-.36-.23-.48-.03.05-.07.08-.08.13-.1.33-.34.4-.64.38-.13-.01-.26-.03-.46-.05ZM27.89,34.1c-.06.04-.08.05-.09.06-.03.04-.05.09-.07.14-.21.4-.28.43-.73.31-.03,0-.06.01-.09.02,0,.03-.02.07,0,.1.02.06.05.13.09.18.29.37.71.32.88-.12.08-.21.1-.43,0-.69ZM32.96,36.47c.02.05.02.11.05.14.55.54,1.35.5,1.85-.09.04-.05.08-.11,0-.16-.76.42-.83.43-1.9.11ZM19.03,42.74c.26,0,.48-.07.61-.22.05-.06.08-.17.05-.23-.02-.06-.14-.14-.19-.13-.22.05-.43.12-.63.2-.09.04-.19.11-.14.24.04.11.15.13.25.14.02,0,.03,0,.05,0ZM38.76,23.83c-.05.1-.09.13-.09.18-.08.41-.12.82-.47,1.11-.04.04-.03.16-.02.24.02.11.17.15.25.07.05-.05.11-.09.13-.15.21-.44.29-.9.21-1.45ZM28.32,29.39c.21.23.4.32.66.26.22-.05.46-.09.56-.37-.42.04-.82.07-1.22.11ZM26.87,35.5c.12.28.33.35.56.35.2,0,.4-.06.51-.32-.21.01-.37.03-.54.03-.16,0-.33-.03-.53-.05ZM26.86,40.19s0,.05.02.06c.28.19.72.13.91-.13.02-.03.02-.11,0-.14-.02-.04-.09-.08-.12-.07-.27.09-.54.19-.8.28ZM30.18,29.17c.07.07.12.16.18.18.26.09.44.02.62-.22.04-.05.02-.14.03-.24q-.36.23-.82.28ZM28.69,34.93c-.15.16-.25.27-.38.41.1.03.18.09.2.07.08-.06.15-.14.19-.22.02-.04,0-.11-.01-.25ZM14.3,20.79c.14-.24.27-.48.42-.71.14-.23.3-.45.46-.68-.05-.02-.09-.04-.1-.03-.55.49-.96,1.08-1.16,1.8-.16.57-.1,1.13.06,1.68.06.2.13.39.2.59.09.29-.07.53-.36.54-.17,0-.34-.04-.5-.09-.16-.05-.32-.13-.48-.19-.11-.04-.23-.08-.35-.1-.21-.03-.36.05-.45.26-.05.11-.06.24-.11.34-.11.23-.21.47-.37.68-.2.27-.45.37-.82.25-.39-.13-.81-.15-1.22-.23-.2-.04-.41-.07-.6-.14-.94-.34-1.91-.6-2.9-.75-.17-.03-.34-.04-.51-.02.29.21.65.24.97.34.33.1.65.19.98.28-.03.14-.11.09-.17.09-.67-.04-1.34-.07-2.01-.13-.27-.03-.54-.1-.8-.19-.35-.12-.6-.36-.69-.72-.13-.53-.45-.92-.81-1.3-.15-.16-.29-.34-.41-.53-.16-.24-.13-.5.04-.72.13-.16.28-.31.45-.43.8-.57,1.66-.98,2.63-1.15.25-.04.5-.12.75-.19.21-.06.31-.23.29-.44-.02-.19-.06-.37-.1-.56-.07-.27-.16-.53-.21-.8-.08-.41.04-.61.45-.74.59-.18,1.2-.32,1.8-.48.15-.04.29-.08.44-.12-.04-.2-.2-.26-.32-.35-.67-.54-1.34-1.09-1.92-1.73-.22-.24-.42-.5-.61-.77-.07-.09-.1-.21-.17-.36.67.03,1.17.39,1.72.61.06-.13-.03-.18-.09-.22-.36-.32-.73-.63-1.09-.95-.14-.12-.3-.22-.43-.44.28.06.47.17.66.27,1.09.58,1.98,1.38,2.64,2.42.18.29.41.51.69.69,1.52.99,3.15,1.26,4.89.75.2-.06.39-.14.58-.23.06-.02.09-.09.19-.18-.91.06-1.74.1-2.58-.08.47-.3,1.59-.66,2.02-.63.34.03.68.1,1.03.13.24.02.48,0,.72-.02.28-.03.53-.15.75-.33.37-.32.81-.53,1.24-.73.33-.15.66-.3.98-.47.24-.13.47-.28.7-.44.24-.17.41-.41.56-.67.22-.39.21-.72-.08-1.09-.47-.62-.99-1.2-1.58-1.7-.34-.29-.71-.56-1.04-.85-.36-.32-.72-.64-1.06-.98-.35-.36-.62-.79-.8-1.26-.15-.38-.2-.77-.14-1.17,0-.05.03-.1.05-.14.01-.03.05-.04.1-.08.08.08.16.17.23.26.37.5.8.95,1.27,1.36.14.12.26.27.39.41.71.82,1.55,1.47,2.56,1.89.22.09.44.2.74.18-.07-.1-.11-.19-.18-.25-.51-.46-1.03-.92-1.54-1.38-.26-.23-.51-.46-.77-.7-.1-.09-.19-.2-.3-.31.06-.1.1-.19.17-.26.4-.4.81-.8,1.23-1.19.85-.79,1.86-1.16,3.03-1.09.38.02.76.04,1.14.04.4,0,.69.17.87.54.34.68.7,1.35,1.03,2.03.22.45.41.91.61,1.37.19.43.44.81.79,1.14.17.16.33.36.45.56.21.35.13.64-.25.8-.25.11-.52.18-.79.21-.59.08-1.17,0-1.75-.14-.2-.05-.4-.11-.6-.14-.22-.04-.44-.05-.67-.06-.22,0-.4.1-.52.29-.18.29-.36.59-.53.89-.21.36-.23.76-.13,1.15.06.25.15.49.25.73.3.75.62,1.5.9,2.26.19.52.32,1.05.49,1.58.13.42.07.82-.09,1.21-.07.16-.14.32-.2.48-.11.29-.05.54.18.75.1.09.21.17.32.26.13.11.27.21.4.33.2.18.3.41.31.68.02.65.06,1.31.09,1.96,0,.24.02.48,0,.72-.05.52-.31.79-.83.82-.5.02-1,.02-1.5-.03-.73-.08-1.29-.47-1.63-1.13-.17-.34-.3-.7-.44-1.05-.08-.19-.14-.39-.23-.58-.16-.34-.42-.54-.8-.57-.22-.02-.45-.05-.67-.06-.46-.03-.82-.23-1.1-.6-.12-.15-.22-.31-.33-.46-.25-.35-.55-.67-.9-.92-.21-.15-.44-.27-.69-.33-.37-.09-.68,0-.94.28-.08.09-.15.19-.23.28-.32.41-.64.81-.96,1.22-.06.08-.11.18-.24.15h0ZM20.29,17.09c-.02.17.06.3.18.4.14.11.31.15.48.15.9-.05,1.36-.76,1.36-1.36,0-.05-.05-.11-.08-.18-.67,1.08-.91,1.08-1.94.99ZM24.64,5.83c-.02.35-.02.59-.06.82-.07.4-.26.7-.69.8-.06.01-.11.05-.18.09.12.21.28.29.48.27.22-.01.4-.12.52-.3.29-.44.38-.91.18-1.41-.03-.08-.13-.14-.25-.27ZM19.58,18.31c1.44.3,2.93-.39,3.09-1.13-.09.07-.16.11-.22.16-.6.51-1.32.71-2.08.81-.27.03-.54.06-.8.16ZM12.45,19.33c-.17.28-.31.53-.48.77-.19.27-.54.26-.83.38.12.26.3.3.53.26.47-.1.91-.65.91-1.14,0-.08-.08-.17-.12-.26ZM22.67,19.98s-.06-.14-.13-.16c-.35-.13-.63-.03-.69.35-.03.25.14.44.39.41.25-.03.43-.27.42-.59ZM13.69,18.84c-.17.21-.25.32-.34.42-.1.11-.31.04-.38.21.24.17.35.2.5.07.1-.09.18-.21.23-.33.03-.08,0-.18-.02-.38ZM19.05,17c.25.17.36.18.52.04.22-.19.25-.4.1-.66q-.21.4-.62.61ZM6.95,22.35c.02.18.13.25.28.25.14,0,.2-.12.24-.23.03-.07.02-.16.04-.31-.13.1-.19.18-.27.21-.09.04-.19.05-.29.07ZM22.76,7.36c.13.02.2.05.25.03.06-.02.12-.07.15-.13.13-.22.11-.37-.1-.57-.02.11-.02.22-.06.31-.05.1-.13.19-.24.36ZM19.72,28.24c-.36-.68-1.16-.73-1.58-.08-.12.18-.21.4-.26.61-.21.92-.11,1.85.08,2.76.03.16.12.32.23.45.24.29.6.29.86.02.12-.12.21-.27.28-.43.36-.74.53-1.52.58-2.33.01-.35-.02-.69-.19-1ZM28.05,20.63c.1,0,.21,0,.31,0,.36-.04.52-.21.51-.58,0-.19-.04-.38-.1-.56-.26-.67-.53-1.34-.8-2.01-.07-.16-.17-.3-.27-.44-.08-.11-.19-.21-.3-.28-.22-.15-.46-.12-.66.06-.05.05-.1.1-.14.15-.33.49-.52,1.02-.39,1.61.1.43.24.86.41,1.28.18.45.55.69,1.03.76.14.02.27.02.41.03,0,0,0-.01,0-.02ZM13.48,13.11c.65-.35.68-1.01.38-1.44-.32-.47-.77-.71-1.34-.74-.23-.01-.44.05-.64.17-.38.24-.65.57-.8.98-.17.48.01.85.49,1.02.34.12.69.19,1.08.19.27.02.56-.03.82-.17ZM15.55,40.43c.38-.16.6-.47.62-.88.02-.38-.21-.64-.53-.83-.47-.27-.98-.32-1.5-.22-.23.04-.4.18-.52.39-.28.54-.06,1.24.48,1.52.25.13.52.16.9.17.12-.03.35-.06.55-.15ZM7.8,9.19c.81.17,1.75-.49,1.87-1.31.05-.35-.06-.6-.38-.77-.34-.19-.71-.26-1.09-.2-.26.04-.5.16-.63.4-.2.36-.33.75-.35,1.09,0,.52.17.71.59.8ZM29.74,8.89c.05-.44-.03-.86-.22-1.26-.25-.55-.53-1.08-.81-1.61-.06-.12-.14-.24-.24-.33-.11-.1-.25-.18-.39-.23-.18-.06-.36.06-.36.25,0,.19,0,.38.06.56.18.67.46,1.29.83,1.88.2.32.46.6.76.84.08.06.17.1.29.16.04-.1.08-.18.09-.26ZM11.59,26.81c.13.51.51.73,1.02.59.12-.03.23-.07.34-.13.43-.22.63-.62.57-1.12-.05-.46-.33-.77-.75-.89-.63-.19-1.19.12-1.24.78,0,.07-.01.14-.02.23.02.17.03.36.08.54ZM16.83,20.46c-.07-.28-.27-.38-.55-.33-.32.06-.61.36-.64.71-.03.34-.03.68-.03,1.03,0,.1.03.2.06.3.1.3.34.49.59.49.25,0,.48-.19.55-.52.06-.28.08-.57.12-.85-.04-.28-.05-.56-.11-.82ZM15.19,36.82c.66,0,1.06-.39,1.11-1.05.02-.26,0-.52-.02-.77-.07-.84-.14-1.68-.22-2.53-.02-.25-.06-.51-.09-.76-.09.39-.16.79-.16,1.18,0,.79.02,1.59.03,2.38,0,.19.01.38-.02.57-.05.34-.23.53-.57.57-.26.03-.52.03-.77.04-.49.02-.99.03-1.49.05.72.2,1.45.32,2.19.31ZM19.36,2.91c.17.08.35.15.54.18.63.09,1.26.15,1.9.23.05,0,.1,0,.15,0,.11-.01.2-.05.25-.16.04-.1,0-.23-.11-.32-.13-.09-.26-.18-.4-.23-.62-.23-1.27-.32-1.93-.27-.24.02-.47.1-.6.38.07.07.12.16.21.2ZM20.97,24.24c.32.69.81,1.19,1.56,1.41.72.22,1.43.18,2.14-.03.02,0,.04-.05.06-.07-.43-.04-.86-.07-1.28-.12-.97-.12-1.71-.6-2.19-1.46-.13-.24-.25-.49-.37-.74-.08-.15-.15-.31-.22-.46,0,.53.1,1.01.31,1.47ZM21.31,31.77c.06.27.12.54.18.8.28,1.26.49,2.53.65,3.81,0,.02.01.04.03.04.01,0,.03,0,.05,0,.42-1.36-.12-3.88-.89-4.7,0,.02-.02.03-.02.05ZM3.79,26.67c.09.56.24,1.1.49,1.62.05.11.13.21.21.29.07.07.17.13.3,0,.02-.68-.11-1.36-.43-2-.05-.09-.11-.17-.19-.24-.09-.09-.21-.11-.36-.03,0,.11-.04.25-.02.38ZM27.83,15.8c-.52-1.08-1.05-2.16-1.58-3.24-.03-.06-.09-.11-.21-.26.2,1.52.75,2.74,1.85,3.69-.02-.06-.04-.13-.06-.18ZM9.23,25.89c-.98-.37-1.99-.53-3.03-.52-.06,0-.11.04-.19.08.75.41,2.18.65,3.35.56-.07-.07-.09-.1-.12-.11ZM10.33,26.56c0,.09-.02.17,0,.26.06.27.12.53.2.79.03.1.11.2.22.17.09-.02.18-.09.24-.16.06-.08.1-.18.12-.28.06-.29.06-.58-.03-.86-.04-.11-.09-.22-.15-.33-.07-.13-.18-.2-.34-.18-.13.02-.23.13-.25.28-.01.1-.01.2-.02.31,0,0,0,0,.01,0ZM4.71,9.96s0-.07-.01-.1c-.03-.15-.21-.22-.31-.11-.09.1-.18.21-.23.33-.19.45-.27.92-.32,1.4,0,.09.03.2.08.29.02.04.13.06.17.04.07-.04.13-.11.17-.18.27-.45.43-.93.45-1.48,0-.05,0-.12,0-.19ZM15.94,1.31c-.27.03-.55.06-.82.11-.21.04-.38.12-.48.39.79-.03,1.51-.2,2.24-.31.75-.11,1.5-.2,2.22-.29-1.02-.06-2.09,0-3.15.1ZM26.67,16.16c.07-.45-.07-.85-.37-1.19-.05-.06-.16-.11-.22-.09-.08.03-.15.12-.2.2-.03.05-.03.13-.03.2-.02.42.09.82.25,1.2.04.08.13.15.19.21.3-.22.34-.28.38-.54ZM17.93,21.85c-.05-.14-.21-.17-.35-.09-.18.09-.29.26-.3.45-.03.27-.02.54,0,.81,0,.1.06.19.11.28.09.15.28.18.39.05.08-.09.15-.19.18-.3.06-.19.08-.4.13-.63-.04-.17-.08-.37-.15-.56ZM17.13,38.15c.31-.13.36-.44.09-.65-.31-.24-.65-.29-1.02-.15-.16.06-.25.19-.26.36-.01.19.07.34.24.42.16.06.33.09.49.14.16-.04.32-.06.46-.12ZM31.14,10.13c.11-.59-.06-1.09-.51-1.48-.08-.07-.21-.1-.32-.13-.1-.02-.2.08-.21.18,0,.05,0,.11.01.15.12.3.24.61.38.9.12.23.3.41.56.52.03-.06.07-.09.08-.14ZM11.5,3.88c.48-.15.96-.29,1.35-.62.08-.06.17-.13.13-.3-.4.02-.81-.03-1.18.19-.33.2-.67.41-.87.79.23.09.4,0,.57-.05ZM3.85,16.7c0,.09,0,.17.02.26.02.08.06.15.11.25.38-.24.45-.62.54-.98.08-.32.1-.64-.15-.96-.28.43-.51,1.08-.52,1.44ZM11.12,7.01c.15-.07.23-.2.24-.37,0-.11-.03-.21-.13-.26-.5-.26-.9-.07-.99.46-.02.11.03.2.14.24.08.03.16.04.28.07.14-.04.3-.08.46-.15ZM4.5,18.7c.2-.27.31-.57.38-.89.02-.1.02-.21,0-.31-.02-.14-.2-.22-.32-.13-.07.05-.14.11-.17.19-.15.37-.23.75-.14,1.15,0,.03.05.05.09.09.05-.03.11-.06.15-.1ZM18.46,26.49c.05-.28.03-.55-.17-.78-.11-.12-.27-.08-.32.08-.13.4-.12.81.04,1.22.29-.07.41-.27.46-.52ZM17.2,3.12c.11-.03.21-.09.31-.16.08-.06.05-.22-.05-.26-.27-.11-.54-.19-.84-.17-.17.01-.28.1-.37.24-.06.11-.03.26.09.29.16.05.33.07.43.08.19,0,.31,0,.42-.03ZM24.78,2.68c-.03.18.13.22.24.29.81.52,1.62,1.03,2.43,1.55.07.04.13.08.2.13,0-.1-.06-.17-.11-.22-.7-.62-1.47-1.12-2.32-1.51-.15-.07-.29-.16-.44-.25,0,0,0,.01,0,.01ZM16.17,9.27c.05-.18-.1-.35-.28-.32-.07,0-.14.03-.19.06-.23.15-.41.36-.51.63-.05.13.04.24.18.24.36,0,.71-.26.81-.6ZM4.87,7.55c.12.06.19-.01.27-.09.65-.63,1.39-1.12,2.22-1.48.04-.02.06-.06.13-.11-.42.07-.76.21-1.1.38-.61.31-1.09.76-1.51,1.3h-.01ZM22.43,3.92c-.44-.01-.69.05-1.24.28-.55.24-1.06.56-1.45,1.02.83-.52,1.7-.95,2.69-1.31ZM8.9,13.26c.08.09.17.17.23.26.45.65,1.03,1.15,1.74,1.51.1.05.2.12.3.19,0,0,0,0,0,0,.04-.16-.08-.21-.18-.27-.57-.38-1.1-.81-1.57-1.31-.1-.11-.2-.23-.32-.33-.04-.04-.13-.02-.19-.03h0ZM18.72,9.99c-.36-.45-.61-.67-1.05-.91.61.74,1.17,1.42,1.72,2.09-.13-.45-.39-.82-.68-1.18ZM7.09,27.49s.04.06.07.08c.65.47,1.2,1.03,1.63,1.71.02.03.05.04.08.06.01-.01.04-.03.03-.04-.28-.76-.79-1.32-1.48-1.72-.1-.06-.21-.12-.34-.07,0,0,.01-.01.01-.01ZM11.52,11.01c.8-.51,1.52-.47,2.23.02-.37-.72-1.68-.84-2.23-.02ZM4.78,25.54c-.02-.08-.08-.15-.14-.21-.03-.03-.1-.04-.14-.03-.04.01-.08.07-.08.11,0,.38.14.73.31,1.19.16-.43.12-.75.05-1.06ZM21.77,2.35s0-.08-.03-.09c-.47-.31-1.31-.44-1.99-.3.72.14,1.37.26,2.03.38,0,0,0,.01,0,.01ZM7.4,6.86c-.18.19-.31.41-.28.72.15-.21.26-.4.42-.55.16-.16.37-.29.59-.45-.33-.05-.54.09-.72.28Z"/>
    </g>
  </g>
</svg>