<?xml version="1.0" encoding="UTF-8"?>
<svg id="Calque_2" data-name="Calque 2" xmlns="http://www.w3.org/2000/svg" xmlns:xlink="http://www.w3.org/1999/xlink" viewBox="0 0 62.9 29.14">
  <defs>
    <style>
      .cls-1 {
        fill: #fff;
      }

      .cls-1, .cls-2 {
        stroke-width: 0px;
      }

      .cls-2 {
        fill: url(#Dégradé_sans_nom_22);
      }
    </style>
    <linearGradient id="Dégradé_sans_nom_22" data-name="Dégradé sans nom 22" x1="0" y1="14.57" x2="62.9" y2="14.57" gradientUnits="userSpaceOnUse">
      <stop offset="0" stop-color="#fc3246"/>
      <stop offset="1" stop-color="#4f8ae0"/>
    </linearGradient>
  </defs>
  <g id="_02" data-name="02">
    <g>
      <g>
        <path class="cls-1" d="M21.44,13.3c.45-.11.9-.22,1.45-.35-.57-.34-1.06-.26-1.55-.1-.7.23-1.21.71-1.53,1.37-.38.77-.42,1.57-.11,2.37.33.82,1.03,1.23,1.89,1.43-.07.17-.08.29-.14.35-1.07,1.03-2.13,2.06-3.22,3.06-.88.81-1.86,1.47-3.01,1.84-2.05.66-4.07.66-6.07-.22-.99-.44-1.9-1-2.74-1.67-.12-.09-.23-.18-.34-.29-.19-.2-.28-.43-.16-.71.1-.22.29-.35.52-.35.29,0,.59.02.88.08.28.06.55.17.85.27-.33-.5-.81-.78-1.5-.88-.54-.08-.79.02-1.46.61-1.02-.58-1.7-1.47-1.92-2.55-.09-.43-.16-.87-.21-1.31-.05-.4-.07-.79-.1-1.21.41.03.46.45.8.68.04-.46-.19-.79-.36-1.12-.17-.33-.39-.63-.6-.96.15-.57.31-1.14.46-1.73-.12-.06-.24-.11-.39-.17.07-.43.25-.83.4-1.25.15-.45.42-.75.86-.95.68-.31,1.24-.79,1.73-1.41-.09-.11-.17-.2-.29-.34.13-.16.24-.36.4-.49.81-.7,1.61-1.43,2.46-2.07.59-.45,1.22-.84,1.69-1.43.08-.1.24-.12.37-.17,0,0-.03-.02-.03-.02-.16.37-.32.73-.49,1.11.13.19.26.02.33-.06.46-.48.9-.98,1.44-1.58.71-.07,1.55-.15,2.39-.23,0-.02.01-.05.02-.07-.32-.05-.65-.1-.97-.14.76-.34,1.52-.33,2.3-.25.32.03.53.23.74.45.79.82,1.7,1.41,2.85,1.6.24.04.48.18.7.32,1.06.68,2.12,1.35,3.15,2.07.51.36.96.8,1.43,1.22.71.64,1.32,1.36,1.64,2.29.06.17.37.23.45.4.26.53.53,1.07.13,1.67-.14.21-.21.48-.25.73-.03.17-.01.42.09.51.4.33.25.73.27,1.16-.91.52-1.79,1.04-2.66,1.54-.26-.18-.09-.35-.07-.52.03-.29.07-.59.06-.88-.05-.9-.87-1.59-1.59-1.56-.33.01-.66-.05-.99-.07h.04ZM15.12,9.08c.21.08.41.15.62.24.63.27,1.27.35,2.15.16-.48-.08-.77-.11-1.05-.17-.64-.15-.92-.56-.86-1.21.04-.52.3-.91.75-1.16.31-.17.65-.3,1.07-.49-.87-.54-1.69-.57-2.51-.28-.96.34-1.27,1.29-.74,2.16.17.28.4.53.6.79-.1.03-.21.05-.3.09-.05.02-.1.1-.09.15,0,.05.08.12.13.13.05,0,.13-.05.16-.1.04-.09.05-.2.08-.29ZM12.21,12.68c-1.36.32-2.27,1.41-2.35,2.83-.07,1.27.7,2.52,1.86,3.01.6.25,1.22.29,1.84.14.45-.11.88-.26,1.24-.81-.45.14-.75.27-1.06.34-1.06.24-1.57-.07-1.89-1.12-.44-1.47.27-2.96,1.67-3.55.48-.2.92-.25,1.34.11.1.08.21.22.37.07-.19-.38-.5-.64-.87-.82-.71-.34-1.43-.61-2.2-.17l.03-.03ZM7.03,12.21c-.13-.04-.29-.14-.38-.1-.23.1-.47.23-.62.42-.67.79-.61,2.5-.04,3.12.09.1.23.15.46.3-.05-.7-.2-1.29-.11-1.85.1-.6.42-1.17.7-1.89ZM14.13,8.54c-.07-.38-.13-.72-.2-1.06,0-.04-.1-.05-.15-.08q.07.74.35,1.14Z"/>
        <path class="cls-1" d="M21.41,13.29c.31.1.62.21.93.3.81.24,1.28.86,1.23,1.61-.05.81-.73,1.58-1.47,1.73-.97.2-2.09-.99-1.92-1.79.1-.48.28-.91.61-1.27.2-.21.44-.38.66-.58,0,0-.04-.01-.04-.01Z"/>
        <path class="cls-1" d="M7.78,25.82c.4-.07.71.17,1.05.31,1.14.45,2.31.79,3.51,1,2.32.41,4.57.08,6.79-.58,1.35-.4,2.51-1.08,3.4-2.19.18-.23.37-.46.55-.68.27.23.11.34.04.45-1.05,1.58-2.5,2.55-4.32,3.09-3.45,1.03-6.79.83-10.04-.75-.35-.17-.78-.25-.96-.68l-.02.03Z"/>
        <path class="cls-1" d="M17.62,24.75c0,.19.04.38.26.41.28.04.57.04.92.06-.46.35-.87.41-1.3.07-.19-.15-.13-.37.15-.52l-.03-.03Z"/>
        <path class="cls-1" d="M12.92,1.9c-.49.1-.98.16-1.56,0,.52-.2.55-.2,1.56,0Z"/>
        <path class="cls-1" d="M17.65,24.78c-.17-.31.04-.46.26-.6q-.07.33-.29.58s.03.03.03.03Z"/>
        <path class="cls-1" d="M2.12,11.89s.09-.1.13-.15c.02-.03.04-.06.05-.08,0,.04,0,.11-.02.13-.05.04-.12.06-.18.09,0,0,.01.02.01.02Z"/>
        <path class="cls-1" d="M22.17,17.44s0,.06,0,.07c-.03,0-.07,0-.1,0,0-.02,0-.07,0-.07.03,0,.07,0,.1,0Z"/>
        <path class="cls-1" d="M2.1,11.87q.11.5-.27.65h.02c.09-.2.19-.41.28-.62,0,0-.02-.02-.02-.02Z"/>
        <path class="cls-1" d="M1.83,12.52c.05.18.11.37.16.55-.05,0-.09.02-.14.02,0-.18,0-.37,0-.56,0,0-.02-.02-.02-.02Z"/>
        <path class="cls-1" d="M10.5,3.61c.02-.07.04-.14.06-.22.01.02.05.06.04.07-.04.05-.08.08-.13.13,0,0,.03.02.03.02Z"/>
        <path class="cls-1" d="M7.81,25.79c-.09-.02-.17-.05-.26-.07.16-.16.21-.07.24.09,0,0,.02-.03.02-.03Z"/>
        <g>
          <path class="cls-1" d="M12.29,12.94c-.03-.09-.05-.18-.08-.26,0,0-.03.03-.03.03.32,0,.63,0,.95,0,0,.05,0,.09,0,.14-.29.02-.58.05-.86.07,0,0,.03.02.03.02Z"/>
          <path class="cls-1" d="M11.95,13.25c.05-.18.12-.32.34-.3,0,0-.03-.02-.03-.02-.11.11-.22.22-.33.33h0Z"/>
          <path class="cls-1" d="M11.94,13.25c-.09-.01-.17-.02-.26-.03v-.03c.09.02.18.04.26.06,0,0,0,0,0,0Z"/>
        </g>
      </g>
      <path class="cls-2" d="M12.18,12.71c.77-.44,1.49-.17,2.2.17.37.18.68.44.87.82-.17.15-.28.02-.37-.07-.43-.36-.87-.31-1.34-.11-1.4.59-2.11,2.08-1.67,3.55.32,1.06.83,1.36,1.89,1.12.31-.07.61-.19,1.06-.34-.36.55-.8.7-1.24.81-.63.15-1.25.11-1.84-.14-1.16-.49-1.94-1.74-1.86-3.01.08-1.42.99-2.51,2.36-2.83.03.09.05.17.08.26-.22-.02-.3.13-.35.3-.09-.02-.17-.04-.26-.06v.03c.08.01.16.02.25.03.11-.11.22-.22.33-.33.29-.02.58-.05.86-.07,0-.05,0-.09,0-.14h-.95ZM15.12,9.08c.21.08.41.15.62.24.63.27,1.27.35,2.15.16-.48-.08-.77-.11-1.05-.17-.64-.15-.92-.56-.86-1.21.04-.52.3-.91.75-1.16.31-.17.65-.3,1.07-.49-.87-.54-1.69-.57-2.51-.28-.96.34-1.27,1.29-.74,2.16.17.28.4.53.6.79l-.03-.03ZM6.65,12.11c-.23.1-.47.23-.62.42-.67.79-.61,2.5-.04,3.12.09.1.23.15.46.3-.05-.7-.2-1.29-.11-1.85.1-.6.42-1.17.7-1.89-.13-.04-.29-.14-.38-.1ZM13.93,7.48s-.1-.05-.15-.08q.07.74.35,1.14c-.07-.38-.13-.72-.2-1.06ZM15.15,9.11c-.1.03-.21.05-.3.09-.05.02-.1.1-.09.15,0,.05.08.12.13.13.05,0,.13-.05.16-.1.04-.09.05-.2.08-.29,0,0,.03.03.03.03ZM60.05,2.13c-.32-.02-.64-.04-.97-.05-1.67-.07-3.33-.11-5-.21-5.51-.32-11.02-.65-16.53-.98-1.18-.07-2.36-.18-3.55-.25-3.48-.2-6.95-.45-10.43-.57-3.44-.13-6.89-.1-10.31.41-2.14.32-4.21.84-6.16,1.79-2.9,1.42-4.91,3.63-6.04,6.66-.49,1.33-.79,2.7-.93,4.11-.23,2.3-.21,4.59.35,6.85.91,3.66,3.08,6.26,6.55,7.76,1.09.47,2.23.8,3.4,1.03,2.71.54,5.45.54,8.19.38,3.48-.21,6.93-.69,10.35-1.36,4.72-.92,9.43-1.93,14.15-2.89,4.72-.96,9.44-1.9,14.15-2.85.34-.07.69-.1,1.2-.32-.35-.03-.5-.05-.65-.05-3.9-.05-7.78.23-11.65.58-2.4.22-4.79.51-7.18.78-2.13.24-4.27.5-6.4.75-2.76.32-5.52.62-8.28.93-.13.01-.31.08-.36-.22.3-.26.65-.53.95-.84.38-.4.83-.58,1.36-.65,5.24-.75,10.48-1.52,15.72-2.29.91-.13,1.81-.29,2.95-.47-.33-.07-.42-.1-.52-.1-2.33-.06-4.67-.12-7-.17-3.11-.07-6.22-.13-9.33-.2-.21,0-.42-.08-.67-.13.1-.38.18-.7.27-1.02.35-1.41.57-2.84.44-4.29-.05-.63-.16-1.25.12-1.85.06-.13.07-.3.05-.44-.2-1.14-.45-2.25-1.31-3.12-.36-.37-.75-.73-1.05-1.14-.66-.92-1.49-1.65-2.43-2.26-.62-.4-1.25-.79-1.87-1.2-.14-.09-.24-.23-.44-.44.3-.06.47-.12.65-.13.67-.04,1.33-.08,2-.09,3.67-.03,7.34-.04,11-.06,2.22-.01,4.45,0,6.67-.06,3.11-.09,6.22-.2,9.33-.36,2.33-.12,4.66-.33,6.98-.51.73-.06,1.46-.17,2.19-.26,0-.07.02-.13.02-.2ZM1.99,13.07s-.09.02-.14.02v-.55c.08-.22.18-.43.27-.64.04-.06.08-.11.12-.16.02-.03.04-.06.05-.08,0,.04,0,.11-.02.13-.05.04-.12.06-.18.09q.11.5-.27.65c.05.18.11.37.16.55ZM17.91,24.17q-.07.33-.29.57c0,.2.04.39.27.42.28.04.57.04.92.06-.46.35-.87.41-1.3.07-.19-.15-.13-.37.15-.52-.17-.31.04-.46.26-.6ZM8.83,26.12c1.14.45,2.31.79,3.51,1,2.32.41,4.57.08,6.79-.58,1.35-.4,2.51-1.08,3.4-2.19.18-.23.37-.46.55-.68.27.23.11.34.04.45-1.05,1.58-2.5,2.55-4.32,3.09-3.45,1.03-6.79.83-10.04-.75-.35-.17-.78-.25-.96-.68-.09-.02-.17-.05-.26-.07.16-.16.21-.07.24.09.4-.07.71.17,1.05.31ZM10.55,3.4s.05.06.04.07c-.04.05-.08.08-.13.13-.16.37-.32.73-.49,1.11.13.19.26.02.33-.06.46-.48.9-.98,1.44-1.58.71-.07,1.55-.15,2.39-.23,0-.02.01-.05.02-.07-.32-.05-.65-.1-.97-.14.76-.34,1.52-.33,2.3-.25.32.03.53.23.74.45.79.82,1.7,1.41,2.85,1.6.24.04.48.18.7.32,1.06.68,2.12,1.35,3.15,2.07.51.36.96.8,1.43,1.22.71.64,1.32,1.36,1.64,2.29.06.17.37.23.45.4.26.53.53,1.07.13,1.67-.14.21-.21.48-.25.73-.03.17-.01.42.09.51.4.33.25.73.27,1.16-.91.52-1.79,1.04-2.66,1.54-.26-.18-.09-.35-.07-.52.03-.29.07-.59.06-.88-.05-.9-.87-1.59-1.59-1.56-.33.01-.66-.05-.99-.07.31.1.62.21.93.3.81.24,1.28.86,1.23,1.61-.05.81-.73,1.58-1.47,1.73-.97.2-2.09-.99-1.92-1.79.1-.48.28-.91.61-1.27.2-.21.44-.38.66-.57.44-.11.89-.22,1.44-.36-.57-.34-1.06-.26-1.55-.1-.7.23-1.21.71-1.53,1.37-.38.77-.42,1.57-.11,2.37.33.82,1.03,1.23,1.89,1.43-.07.17-.08.29-.14.35-1.07,1.03-2.13,2.06-3.22,3.06-.88.81-1.86,1.47-3.01,1.84-2.05.66-4.07.66-6.07-.22-.99-.44-1.9-1-2.74-1.67-.12-.09-.23-.18-.34-.29-.19-.2-.28-.43-.16-.71.1-.22.29-.35.52-.35.29,0,.59.02.88.08.28.06.55.17.85.27-.33-.5-.81-.78-1.5-.88-.54-.08-.79.02-1.46.61-1.02-.58-1.7-1.47-1.92-2.55-.09-.43-.16-.87-.21-1.31-.05-.4-.07-.79-.1-1.21.41.03.46.45.8.68.04-.46-.19-.79-.36-1.12-.17-.33-.39-.63-.6-.96.15-.57.31-1.14.46-1.73-.12-.06-.24-.11-.39-.17.07-.43.25-.83.4-1.25.15-.45.42-.75.86-.95.68-.31,1.24-.79,1.73-1.41-.09-.11-.17-.2-.29-.34.13-.16.24-.36.4-.49.81-.7,1.61-1.43,2.46-2.07.59-.45,1.22-.84,1.69-1.43.08-.1.24-.12.37-.17.02-.07.04-.14.06-.22ZM11.36,1.9c.52-.2.55-.2,1.56,0-.49.1-.98.16-1.56,0ZM22.16,17.5s-.07,0-.1,0c0-.02,0-.07,0-.07.03,0,.07,0,.1,0,0,.02,0,.06,0,.07ZM45.19,6.17c-3.24-.61-6.49-1.13-9.77-1.48-1.99-.21-3.98-.44-5.97-.55-2.07-.12-4.15-.11-6.22-.15-.15,0-.29.02-.3.21.8.6,1.62,1.17,2.38,1.81.35.29.67.38,1.11.36,1.85-.09,3.7-.2,5.55-.22,5-.07,10,.13,14.98.65.36.04.73.04,1.1.07-.92-.4-1.89-.53-2.85-.71ZM34.31,9.06c3.26.47,6.54.76,9.83.88,4.48.16,8.95.2,13.42-.21,1.62-.15,3.23-.41,4.84-.62.12-.02.23-.07.49-.16-1.98-.31-26.45-.4-28.89,0,.1.04.2.09.3.1ZM42.7,18.1c-.79.1-1.61.1-2.52.54,6.23,0,12.28-.18,18.33-.7-5.27-.56-10.55-.48-15.81.16Z"/>
    </g>
  </g>
</svg>