<?xml version="1.0" encoding="UTF-8"?>
<svg id="Calque_2" data-name="Calque 2" xmlns="http://www.w3.org/2000/svg" xmlns:xlink="http://www.w3.org/1999/xlink" viewBox="0 0 93.97 24.03">
  <defs>
    <style>
      .cls-1 {
        fill: #fff;
      }

      .cls-1, .cls-2 {
        stroke-width: 0px;
      }

      .cls-2 {
        fill: url(#Dégradé_sans_nom_22);
      }
    </style>
    <linearGradient id="Dégradé_sans_nom_22" data-name="Dégradé sans nom 22" x1="0" y1="12.01" x2="93.97" y2="12.01" gradientUnits="userSpaceOnUse">
      <stop offset="0" stop-color="#fc3246"/>
      <stop offset="1" stop-color="#4f8ae0"/>
    </linearGradient>
  </defs>
  <g id="_01" data-name="01">
    <g>
      <path class="cls-2" d="M52.35,22.01c-4.03-.61-8.05-1.22-12.08-1.83-4.17-.63-8.35-1.25-12.52-1.88-3.55-.54-7.1-1.08-10.65-1.62-.11-.02-.22-.01-.39-.02-.21.2-.46.42-.7.65-4.54,4.46-11.53,4.03-15.47-.93-.15-.19-.36-.34-.54-.51h0c.17.02.35-.08.51.09.35.39.7.77,1.07,1.13,3.57,3.41,9.02,3.56,12.67.9.42-.3.8-.66,1.18-1.01.1-.09.14-.23.25-.42-.64-.26-1.15-.31-1.71.08-1.26.89-2.66,1.47-4.21,1.56-2.57.16-4.73-.68-6.36-2.72-.16-.2-.32-.41-.47-.62-1.28-1.74-1.68-3.67-1.22-5.78.28-1.28.75-2.48,1.43-3.59,1.3-2.13,4-3.75,7.19-3.01,1.83.42,3.53,1.12,4.92,2.44.29.28.6.4.99.37.25-.02.51-.02.74-.03.21-.33,0-.54-.14-.74-1.05-1.68-2.51-2.9-4.29-3.74-.33-.16-.69-.28-1.02-.44-.12-.06-.21-.19-.31-.28h-.02c2.79.73,4.93,2.32,6.42,4.78.08.13.17.24.28.41.27.03.56.07.85.08,5.48.09,10.97.16,16.45.26,6.11.1,12.23.22,18.34.33,1.44.03,2.89.05,4.33.14-9.61.5-19.21.99-28.93,1.49.17.11.23.18.29.19.7.04,1.4.11,2.11.11,4.67,0,9.34,0,14.01,0,6.26,0,12.53.03,18.79.04,4.52.01,9.04.02,13.57.03.61,0,1.23.03,1.84.09-8.44.77-16.9,1.4-25.35,2.29.18.03.36.09.54.1,3.03.16,6.07.31,9.1.48,3.52.19,7.03.38,10.55.57,1.55.08,3.11.17,4.66.24,3.63.18,7.25.35,10.88.53.59.03,1.18.11,1.77.29-.32,0-.64.02-.96.03-6.37.18-12.74.35-19.11.54-3.89.11-7.78.25-11.67.37-.29,0-.59.04-1.07.08.51.29.91.32,1.29.37,2.64.4,5.28.78,7.91,1.17,2.82.42,5.64.84,8.46,1.26,2.71.4,5.42.8,8.13,1.2,3,.45,6.01.89,9.01,1.35.06,0,.12.07.28.18-3.87.05-7.63-.19-11.4-.27-3.78-.09-7.56-.26-11.33-.35-3.77-.09-7.55-.26-11.46-.31.3.41.65.41.94.48,1.83.46,3.67.9,5.5,1.35,4.86,1.19,9.71,2.37,14.56,3.57.45.11.97.08,1.31.5h0c-2.12-.33-4.24-.67-6.36-1-3.11-.48-6.22-.96-9.33-1.44-3.11-.48-6.22-.97-9.33-1.45-3.18-.49-6.37-.99-9.55-1.48-3-.47-6-.93-9-1.39-2.71-.42-5.42-.83-8.12-1.24-.21-.03-.43-.04-.67,0,.31.22.66.32,1.03.41,6.79,1.7,13.57,3.41,20.36,5.13.41.1.9.07,1.21.47h.02ZM15.12,6.33c-.03.22-.02.41.36.45-.17-.18-.28-.31-.39-.43-.11-.51-.51-.8-.88-1.1-1.16-.97-2.53-1.49-3.99-1.85-2.03-.51-3.7.15-5.23,1.44-.31.26-.22.5-.11.74-.23.45-.46.87-.67,1.3-.13.27-.27.54-.58.63-.41.13-.57.45-.65.83-.11.5-.27,1-.29,1.51-.02.39.17.78.23,1.17.03.2.06.48-.05.62-.22.29-.17.57-.06.84.2.48.43.94.67,1.4.08.15.25.34.39.35.36.03.54.25.64.53.12.36.38.55.7.66.52.19,1.05.35,1.58.51.08.02.19-.04.28-.07-.03-.17-.06-.31-.09-.52.22.05.39.08.56.12.58.11,1.16.23,1.74.34.31.06.57-.02.82-.22.6-.48,1.22-.94,1.89-1.45.11-.45-.02-.96-.1-1.47-.12-.73-.25-1.46-.3-2.19-.04-.57.06-1.15.53-1.7.16.56.28,1.02.44,1.47.06.19.19.36.29.55.57-.2.99-.49,1.28-.94.03-.05,0-.14,0-.21-.2-.06-.39-.11-.61-.18.04-.29-.06-.58.29-.69.16-.05.37.12.49-.15-.05-.52-.15-1.05-.5-1.54-.29.15-.53.28-.84.44-.13-.33-.23-.59-.32-.81.2-.32.39-.55.49-.82.11-.31-.03-.57-.34-.72-.17.07-.34.14-.57.23.02-.18-.01-.39.06-.43.17-.1.45-.23.59-.16.51.28.99.64,1.48.97.26.18.4.54.77.57ZM16.4,13.11c.19.09.25.14.32.15,10.97,1.18,21.95,2.36,32.92,3.54.15.02.3.01.44,0,.07,0,.14-.04.33-.1-2.25-.55-4.44-.82-6.61-1.21-2.22-.41-4.45-.76-6.68-1.14-2.19-.37-4.38-.73-6.57-1.12-2.2-.39-4.41-.7-6.58-1.22.37-.06.74-.07,1.11-.06,3,.13,6,.26,8.99.39,1.85.08,3.7.16,5.55.24.18,0,.37,0,.56,0,.14,0,.28-.03.42-.05,0-.05,0-.1,0-.15-3.46-.47-6.92-.94-10.38-1.42,5.7-.37,11.41-.38,17.21-.64-.16-.08-.21-.13-.27-.13-9.69-.49-19.39-.98-29.09-1.46-.26-.01-.52,0-.78,0-.03,0-.07.02-.1.04-.03.02-.06.04-.07.05-.24,1.43-.48,2.85-.73,4.29ZM13.24,15.36c-.32.19-.6.36-.92.55.55.29.8.12.92-.55ZM13.91,12.8q.73.07.71-.46c-.19.12-.36.24-.71.46ZM15.29,11.67c.52-.09.53-.09.44-.61,0-.03-.11-.04-.17-.06-.08.19-.15.38-.27.67ZM15.67,7.46l-.03-.07-.02.07h.06ZM21.58,2.73c2.3.21,16.98-.34,19.04-.72-5.81-.27-14.87-.01-19.04.72ZM19.47,18.69c.08.11.13.28.23.33.26.13.55.21.83.3,4.59,1.44,9.27,2.46,14.03,3.14l-.02.02c-.17-.44-.61-.39-.94-.46-3.24-.77-6.49-1.52-9.73-2.28-1.48-.34-2.95-.69-4.42-1.04h.02ZM34.57,22.46c.17.02.33.03.5.05,0-.04,0-.07,0-.11-.17.03-.35.05-.52.08,0,0,.02-.02.02-.02ZM11.19.06c-.17-.02-.34-.04-.51-.06v.1c.18-.02.36-.04.54-.06,0,0-.02.01-.03.01ZM19.45,18.71c-.14,0-.28,0-.6,0,.33.1.47.06.62-.02,0,0-.02,0-.02.01ZM52.36,22.01c.12.01.23.03.35.05,0-.02,0-.04,0-.06-.13.01-.25.02-.38.03,0,0,.02,0,.03-.01ZM82.1,24.03c.12,0,.25,0,.37,0,0,0,0-.02,0-.02l-.37.02s0,0,0,0ZM0,15.86c.06-.09.11-.18.17-.27-.03-.01-.06-.03-.08-.04-.03.1-.05.21-.08.31,0,0,0,0,0,0ZM5.99,14.48c1.06-.52,2.11-1.05,3.16-1.59.39-.2.59-.55.6-.99.02-.88.03-1.77.03-2.65,0-.13-.07-.26-.14-.54-.22.28-.38.42-.46.6-.43.94-.86,1.88-1.24,2.84-.26.65-.64,1.14-1.25,1.49-.38.21-.77.43-1.06.85.16,0,.29.04.37,0ZM9.67,6.96c.78.14,1.51.46,2.27.97-.08-1.07-.4-1.93-.7-2.79-.06-.16-.2-.29-.31-.44-.87.11-1.22.81-1.63,1.34-.7.12-1.39-.02-2.1.53.95.15,1.71.26,2.47.4ZM4.13,8.36c-.46,1.05-.43,2.11-.45,3.15,0,.57.03,1.18.58,1.76.25-3.15.23-4.03-.13-4.91ZM7.02,10.17c.22-.36.36-.76.53-1.15-.49-.24-.66-.24-.77.01-.17.39-.41.76-.42,1.41.31-.12.57-.14.66-.28ZM8.66,14.59c0,.23.21.42.52.44.07,0,.14,0,.22,0,.23-.02.41-.14.49-.36.06-.17-.12-.38-.38-.45-.1-.03-.21-.04-.3-.06-.3,0-.54.2-.55.44ZM5.07,13.15c.04.07.26.1.38.07.18-.04.26-.3.15-.44-.13-.17-.29-.33-.44-.48-.15-.14-.05-.46-.47-.51-.13.55.17.95.37,1.36ZM10.01,7.77c-.51-.43-1.07-.59-1.72-.27.57.14,1.12.37,1.72.27ZM9.32,3.81c-.07,0-.14.11-.29.24.47.05.83.09,1.19.11.1,0,.21-.03.5-.07-.54-.42-.98-.28-1.4-.28ZM6.32,6.32c.2-.04.27-.22.25-.43-.02-.17-.23-.31-.41-.26-.28.08-.57.15-.63.69.31,0,.56.03.79,0ZM6.15,8.02c-.02.05.11.18.19.23.09.05.22.06.31.04.09-.03.2-.12.21-.2.02-.08-.05-.21-.12-.26-.08-.06-.2-.05-.38-.09-.07.08-.18.17-.22.28ZM10.75,11.41c.43-.22.36-.55.24-1.11-.44.42-.51.72-.24,1.11ZM6.04,12.32c.06.08.11.18.19.22.04.02.13-.09.21-.14-.07-.07-.14-.13-.21-.2-.08.05-.13.09-.19.12ZM8.49,4.55s.08-.07.13-.11c-.03-.02-.06-.05-.09-.05-.1,0-.2.02-.5.05.29.07.38.11.47.11ZM10.5,14s0,.07-.01.1c.03,0,.06,0,.09-.01.01,0,0-.04.01-.07-.03,0-.06-.01-.09-.02ZM11.04,12.22s-.02.04-.03.06c.03,0,.05.02.08.02.01,0,.02-.03.03-.05-.03,0-.05-.02-.08-.02Z"/>
      <g>
        <path class="cls-1" d="M16.4,13.11c.25-1.44.49-2.86.73-4.29.01,0,.04-.03.07-.05.03-.02.07-.04.1-.04.26,0,.52-.01.78,0,9.7.48,19.39.97,29.09,1.46.06,0,.11.05.27.13-5.8.25-11.5.27-17.21.64,3.46.47,6.92.94,10.38,1.42,0,.05,0,.1,0,.15-.14.02-.28.05-.42.05-.18,0-.37,0-.56,0-1.85-.08-3.7-.16-5.55-.24-3-.13-6-.26-8.99-.39-.37-.02-.74,0-1.11.06,2.18.52,4.39.83,6.58,1.22,2.19.39,4.38.75,6.57,1.12,2.23.38,4.46.74,6.68,1.14,2.17.4,4.36.67,6.61,1.21-.19.06-.26.1-.33.1-.15,0-.3,0-.44,0-10.97-1.18-21.95-2.36-32.92-3.54-.07,0-.13-.06-.32-.15Z"/>
        <path class="cls-1" d="M15.12,6.32c-.38-.03-.51-.39-.77-.57-.49-.33-.96-.69-1.48-.97-.13-.07-.41.06-.59.16-.07.04-.04.25-.06.43.24-.1.4-.16.57-.23.31.15.45.41.34.72-.1.27-.3.5-.49.82.09.22.19.48.32.81.3-.16.55-.29.84-.44.35.49.46,1.02.5,1.54-.13.27-.34.1-.49.15-.34.11-.24.4-.29.69.22.06.42.12.61.18,0,.07.03.16,0,.21-.29.45-.71.74-1.28.94-.1-.19-.23-.36-.29-.55-.15-.45-.27-.91-.44-1.47-.47.55-.57,1.12-.53,1.7.05.74.19,1.47.3,2.19.08.51.21,1.01.1,1.47-.67.51-1.29.97-1.89,1.45-.25.2-.51.29-.82.22-.58-.11-1.16-.23-1.74-.34-.17-.03-.34-.07-.56-.12.04.21.06.34.09.52-.09.02-.2.09-.28.07-.53-.16-1.06-.31-1.58-.51-.31-.12-.58-.3-.7-.66-.09-.28-.28-.5-.64-.53-.14-.01-.3-.21-.39-.35-.25-.45-.48-.92-.67-1.4-.11-.27-.16-.54.06-.84.11-.14.08-.42.05-.62-.06-.39-.25-.79-.23-1.17.02-.51.18-1.01.29-1.51.08-.37.24-.7.65-.83.31-.1.45-.36.58-.63.21-.43.43-.85.67-1.3-.11-.23-.2-.48.11-.74,1.53-1.29,3.2-1.95,5.23-1.44,1.46.36,2.82.89,3.99,1.85.37.3.77.59.88,1.1l.03-.03ZM5.63,14.49c.16,0,.29.04.37,0,1.06-.52,2.11-1.05,3.16-1.59.39-.2.59-.55.6-.99.02-.88.03-1.77.03-2.65,0-.13-.07-.26-.14-.54-.22.28-.38.42-.46.6-.43.94-.86,1.88-1.24,2.84-.26.65-.64,1.14-1.25,1.49-.38.21-.77.43-1.06.85ZM7.2,6.56c.95.15,1.71.26,2.47.4.78.14,1.51.46,2.27.97-.08-1.07-.4-1.93-.7-2.79-.06-.16-.2-.29-.31-.44-.87.11-1.22.81-1.63,1.34-.7.12-1.39-.02-2.1.53ZM4.27,13.26c.25-3.15.23-4.03-.13-4.91-.46,1.05-.43,2.11-.45,3.15,0,.57.03,1.18.58,1.76ZM6.37,10.44c.31-.12.57-.14.66-.28.22-.36.36-.76.53-1.15-.49-.24-.66-.24-.77.01-.17.39-.41.76-.42,1.41ZM9.2,14.15c-.3,0-.54.2-.55.44,0,.23.21.42.52.44.07,0,.14,0,.22,0,.23-.02.41-.14.49-.36.06-.17-.12-.38-.38-.45-.1-.03-.21-.04-.3-.06ZM4.7,11.79c-.13.55.17.95.37,1.36.04.07.26.1.38.07.18-.04.26-.3.15-.44-.13-.17-.29-.33-.44-.48-.15-.14-.05-.46-.47-.51ZM8.3,7.5c.57.14,1.12.37,1.72.27-.51-.43-1.07-.59-1.72-.27ZM10.72,4.09c-.54-.42-.98-.28-1.4-.28-.07,0-.14.11-.29.24.47.05.83.09,1.19.11.1,0,.21-.03.5-.07ZM5.53,6.33c.31,0,.56.03.79,0,.2-.04.27-.22.25-.43-.02-.17-.23-.31-.41-.26-.28.08-.57.15-.63.69ZM6.37,7.74c-.07.08-.18.17-.22.28-.02.05.11.18.19.23.09.05.22.06.31.04.09-.03.2-.12.21-.2.02-.08-.05-.21-.12-.26-.08-.06-.2-.05-.38-.09ZM11,10.3c-.44.42-.51.72-.24,1.11.43-.22.36-.55.24-1.11ZM6.22,12.2c-.08.05-.13.09-.19.12.06.08.11.18.19.22.04.02.13-.09.21-.14-.07-.07-.14-.13-.21-.2ZM8.02,4.44c.29.07.38.11.47.11.04,0,.08-.07.13-.11-.03-.02-.06-.05-.09-.05-.1,0-.2.02-.5.05ZM10.58,14.02s-.06-.01-.09-.02c0,.03,0,.07-.01.1.03,0,.06,0,.09-.01.01,0,0-.04.01-.07ZM11.11,12.24s-.05-.02-.08-.02c0,0-.02.04-.03.06.03,0,.05.02.08.02.01,0,.02-.03.03-.05Z"/>
        <path class="cls-1" d="M13.24,15.36c-.12.67-.38.83-.92.55.32-.19.61-.36.92-.55Z"/>
        <path class="cls-1" d="M13.91,12.8c.34-.22.52-.33.71-.46q.02.52-.71.46Z"/>
        <path class="cls-1" d="M15.29,11.67c.11-.28.19-.48.27-.67.07.02.17.03.17.06.09.51.09.51-.44.61Z"/>
        <path class="cls-1" d="M15.09,6.35c.11.12.22.25.39.43-.38-.04-.4-.23-.36-.45,0,0-.03.02-.03.02Z"/>
        <polygon class="cls-1" points="15.67 7.46 15.61 7.46 15.64 7.39 15.67 7.46"/>
      </g>
    </g>
  </g>
</svg>