<?xml version="1.0" encoding="UTF-8"?>
<svg id="Calque_2" data-name="Calque 2" xmlns="http://www.w3.org/2000/svg" viewBox="0 0 148.46 84.87">
  <defs>
    <style>
      .cls-1 {
        fill: #ffea92;
        stroke-width: 0px;
      }
    </style>
  </defs>
  <g id="Calque_1-2" data-name="Calque 1">
    <g>
      <g>
        <path class="cls-1" d="M75.77,84.87c-2.98,0-5.95-.31-8.83-.92l-2.2-.47,2.21-.42c11.34-2.17,19.79-5.59,23.77-14.77-5.1,4.89-12,6.06-17.13,6.13-6.8.09-14.45-1.75-20.46-4.94-10.31-5.47-17.48-14.16-19.66-23.83v-.07c-.09-1.03-.13-2.09-.13-3.15,0-2.09.15-4.2.46-6.25.68-4.63,2.12-9.09,4.28-13.25,3.52-6.8,8.83-12.53,15.35-16.58,6.7-4.16,14.43-6.36,22.36-6.36,11.33,0,21.99,4.41,30.01,12.43,8.02,8.02,12.43,18.67,12.43,30.01s-4.41,21.99-12.43,30.01c-8.02,8.02-18.67,12.43-30.01,12.43ZM69.42,83.48c2.09.32,4.22.48,6.35.48,22.9,0,41.53-18.63,41.53-41.53S98.67.91,75.77.91c-15.58,0-29.72,8.6-36.9,22.45-2.11,4.07-3.51,8.43-4.18,12.96-.3,2.01-.45,4.07-.45,6.12,0,1.03.04,2.05.11,3.05,2.14,9.4,9.14,17.85,19.2,23.2,5.88,3.12,13.36,4.93,20.02,4.84,5.5-.08,13.09-1.45,18.04-7.54l1.55-1.91-.76,2.33c-1.72,5.26-4.77,9.2-9.32,12.05-3.44,2.16-7.72,3.74-13.66,5.03Z"/>
        <path class="cls-1" d="M31.48,36.6s-19.08,8.81-12.6,19.87c3.85,6.58,16.74,7.55,16.74,7.55l4.28,4.74S1.71,73.06.03,59.21c-1.22-10.06,31.44-22.61,31.44-22.61Z"/>
        <path class="cls-1" d="M113.52,16.32s28.14-2.45,23.24,11.97c-1.92,5.65-14.07,14.21-14.07,14.21l-1.57,6.19s31.8-15.71,26.81-28.73c-3.63-9.46-34.41-3.63-34.41-3.63Z"/>
      </g>
      <path class="cls-1" d="M54.89,31.43c-3.78,0-7.15-.53-10.06-1.58-5.63-2.03-7.5-5.27-7.58-5.41l.45-.25s0,0,0,0h0s1.9,3.24,7.36,5.2c5.07,1.82,14.35,2.91,29.78-2.21,13.01-4.31,18.57-9.62,20.95-13.31,2.56-3.97,2.07-6.97,2.07-7l.51-.09c.02.13.54,3.19-2.11,7.33-1.54,2.41-3.85,4.68-6.85,6.76-3.74,2.59-8.59,4.88-14.4,6.8-6.88,2.28-13.14,3.54-18.61,3.73-.51.02-1.01.03-1.5.03Z"/>
      <path class="cls-1" d="M63.38,67.49c-3.63,0-6.68-.33-9.1-.77-6.87-1.24-10.32-3.49-10.46-3.58l.29-.43s3.52,2.29,10.3,3.51c6.26,1.12,16.69,1.56,30.81-2.78,15.65-4.81,23.61-11.19,27.53-15.69,4.24-4.87,4.8-8.66,4.8-8.7l.51.07c-.02.16-.57,3.95-4.89,8.93-2.52,2.91-5.82,5.63-9.81,8.07-4.97,3.05-11.02,5.68-18,7.82-8.78,2.69-16.14,3.56-21.98,3.56Z"/>
      <path class="cls-1" d="M56.61,11.73c-2.15,0-3.83-.31-4.68-.95-.45-.33-.68-.74-.69-1.22-.04-2.07,5.66-5.25,13.24-7.4,8.42-2.38,14.14-2.63,15.29-.68.24.41.26.88.05,1.4-.92,2.29-6.51,5.41-13.01,7.25-3.7,1.05-7.36,1.59-10.2,1.59ZM75.74.7c-2.64,0-6.51.67-11.12,1.97-7.98,2.26-12.89,5.33-12.86,6.89,0,.31.16.58.48.81,1.84,1.36,8.18,1.05,14.43-.72,6.25-1.77,11.82-4.82,12.67-6.94.15-.37.14-.67-.02-.94h0c-.42-.71-1.68-1.06-3.58-1.06Z"/>
    </g>
  </g>
</svg>