<?xml version="1.0" encoding="UTF-8"?>
<svg id="Calque_2" data-name="Calque 2" xmlns="http://www.w3.org/2000/svg" viewBox="0 0 84.87 144.2">
  <defs>
    <style>
      .cls-1 {
        fill: #00616c;
        stroke-width: 0px;
      }
    </style>
  </defs>
  <g id="Calque_1-2" data-name="Calque 1">
    <g>
      <path class="cls-1" d="M42.44,116.26c-2.98,0-5.95-.31-8.83-.92l-2.2-.47,2.21-.42c11.34-2.17,19.79-5.59,23.77-14.77-5.1,4.89-12,6.06-17.13,6.13-6.8.09-14.45-1.75-20.46-4.94C9.48,95.39,2.32,86.7.13,77.03v-.07c-.09-1.03-.13-2.08-.13-3.15,0-2.09.15-4.2.46-6.25.68-4.63,2.12-9.09,4.28-13.25,3.52-6.8,8.83-12.53,15.35-16.58,6.7-4.16,14.43-6.36,22.36-6.36,11.33,0,21.99,4.41,30.01,12.43,8.02,8.02,12.43,18.67,12.43,30.01s-4.41,21.99-12.43,30.01c-8.02,8.02-18.67,12.43-30.01,12.43ZM36.09,114.87c2.09.32,4.22.48,6.35.48,22.9,0,41.53-18.63,41.53-41.53s-18.63-41.53-41.53-41.53c-15.58,0-29.72,8.6-36.9,22.45-2.11,4.07-3.51,8.43-4.18,12.96-.3,2.01-.45,4.07-.45,6.12,0,1.03.04,2.05.11,3.05,2.14,9.4,9.14,17.85,19.2,23.2,5.88,3.12,13.36,4.93,20.02,4.84,5.5-.08,13.09-1.45,18.04-7.54l1.55-1.91-.76,2.33c-1.72,5.26-4.77,9.2-9.32,12.05-3.44,2.16-7.72,3.74-13.66,5.03Z"/>
      <path class="cls-1" d="M13.93,111.03s-1.58,28.31,13.52,27.04c8.99-.75,17.85-17.47,17.85-17.47l7.24-2.15s-14.3,30.41-29.93,25.14c-11.36-3.83-8.68-32.56-8.68-32.56Z"/>
      <path class="cls-1" d="M32.68,26.53S44.41-4.74,57.3,7.84c5.05,4.93,7.98,22.26,7.98,22.26l5.8,4.83S69.93,1.34,53.49.02c-11.95-.95-20.81,26.51-20.81,26.51Z"/>
    </g>
  </g>
</svg>